<svg width="227" height="394" viewBox="0 0 227 394" fill="none" xmlns="http://www.w3.org/2000/svg">
<g clip-path="url(#clip0)">
<path d="M227.391 -0.984985H-0.391388V394.985H227.391V-0.984985Z" fill="white"/>
<path d="M343.627 414.204C331.305 454.632 22.4021 440.591 -26.0227 394.342C-74.4472 348.093 -29.5371 22.8626 -17.2149 -17.5654C-4.89269 -57.9932 11.4011 78.6381 16.3385 99.9887C35.6947 183.692 98.0569 155.428 122.798 265.22C165.745 455.805 353.471 381.906 343.627 414.204Z" fill="url(#paint0_linear)"/>
<g clip-path="url(#clip1)">
<path d="M-88.6344 389.736C-73.3518 389.736 -96.3522 393.659 -61.8268 393.112C-27.3014 392.564 4.54705 386.563 49.4672 390.121C117.404 394.115 206.355 391.159 227 392.5C247.645 393.841 227.299 393.112 237.712 393.112C237.712 406.15 198.937 405.19 198.936 405.154C198.937 405.19 -86.457 405.03 -86.4574 404.994C-86.457 405.03 -103.917 389.736 -88.6344 389.736Z" fill="#0C111F"/>
</g>
</g>
<defs>
<linearGradient id="paint0_linear" x1="74.4072" y1="73.8996" x2="76.2983" y2="488.019" gradientUnits="userSpaceOnUse">
<stop stop-color="#C4C4C4" stop-opacity="0.2"/>
<stop offset="0.317708" stop-color="#C4C4C4" stop-opacity="0.3"/>
<stop offset="1" stop-color="#AEC2C1" stop-opacity="0.5"/>
</linearGradient>
<clipPath id="clip0">
<rect width="227" height="394" fill="white"/>
</clipPath>
<clipPath id="clip1">
<rect width="283" height="14" fill="white" transform="translate(-41 387)"/>
</clipPath>
</defs>
</svg>
