<svg width="1338" height="1028" viewBox="0 0 1338 1028" fill="none" xmlns="http://www.w3.org/2000/svg">
<style>
	#rueda_grande {
		animation: giro 5s linear infinite running;
		transform-origin: center;
		transform-box: fill-box;
	}
	#rueda_peque {
		animation: giro 3s linear infinite running;
		transform-origin: center;
		transform-box: fill-box;
	}
	@keyframes giro {
    0% {
      transform: rotate(0deg);
    }
    100% {
      transform: rotate(-360deg);
    }
  }
</style>
<g id="Frame 1">
<rect id="Rectangle 1" width="1338" height="1028" fill="white"/>
<path id="Vector" opacity="0.1" d="M864.045 483.194C864.502 483.701 864.972 484.188 865.446 484.669C867.195 486.444 869.021 488.039 870.911 489.444C880.842 496.943 893.075 500.603 904.996 503.089C931.728 508.678 959.023 509.762 986.204 510.826C1059.64 513.716 1133.26 516.594 1206.51 509.941C1235.45 507.313 1265.03 502.891 1291.26 489.431C1295.02 487.504 1298.7 485.38 1302.32 483.06C1309.62 478.349 1316.64 472.625 1322.48 465.806C1327.98 459.396 1332.41 452.025 1335.07 443.655C1340.61 426.208 1337.68 406.614 1331.35 389.52C1328.71 382.584 1325.74 375.943 1322.46 369.651C1317.59 360.024 1312.21 350.698 1307.29 341.084C1289.8 306.845 1278.38 263.6 1294.53 228.528C1299.19 218.452 1305.88 209.607 1309.66 199.089C1314.49 185.629 1314.11 170.689 1312.57 156.146C1312.38 154.313 1312.15 152.492 1311.94 150.672C1309.31 129.155 1304.4 105.966 1289.19 92.5319C1273.41 78.5721 1250.99 79.2771 1231.39 84.2701C1200.91 92.0383 1172.79 108.261 1144.4 122.913C1116.01 137.565 1086.27 150.948 1055.05 152.396C1027.48 153.678 995.322 144.147 977.027 119.413C959.248 95.3905 925.848 93.5638 901.762 108.075C885.253 118.035 872.913 135.975 867.711 156.146C866.659 160.184 865.9 164.383 865.446 168.67C865.024 172.573 864.882 176.533 865.023 180.482C865.095 182.405 865.234 184.36 865.446 186.251C869.467 226.073 898.426 257.479 916.028 293.052C924.629 310.428 930.704 331.297 924.79 350.032C915.769 378.579 884.398 388.726 865.446 409.979C861.905 413.804 858.766 418.415 856.133 423.657C846.968 442.578 850.359 468.113 864.045 483.194Z" fill="#A2A4AD"/>
<path id="Vector_2" opacity="0.1" d="M1110 504C1047.04 504 996 501.314 996 498C996 494.686 1047.04 492 1110 492C1172.96 492 1224 494.686 1224 498C1224 501.314 1172.96 504 1110 504Z" fill="#A2A4AD"/>
<g id="flowers">
<path id="Vector_3" d="M1019.7 494.156C1019.7 494.156 995.148 447.065 997.048 400.257C997.848 380.605 994.652 361.043 987.511 344.59C984.114 336.796 980.251 329.49 975.971 322.766" stroke="#535461" stroke-width="2" stroke-miterlimit="10"/>
<path id="Vector_4" d="M977.059 293.25C978.795 299.801 976.005 323.542 976.005 323.542C976.005 323.542 963.141 309.319 961.405 302.775C960.992 301.218 960.786 299.553 960.798 297.875C960.81 296.197 961.04 294.539 961.475 292.996C961.91 291.452 962.542 290.054 963.334 288.88C964.126 287.707 965.063 286.781 966.091 286.155C967.12 285.53 968.219 285.217 969.327 285.235C970.436 285.253 971.531 285.602 972.55 286.261C973.569 286.92 974.493 287.876 975.268 289.075C976.043 290.275 976.655 291.693 977.068 293.25H977.059Z" fill="#A2A4AD"/>
<path id="Vector_5" d="M999.618 321.638C998.724 328.56 987.858 346.193 987.858 346.193C987.858 346.193 982.164 323.67 983.058 316.747C983.509 313.456 984.798 310.567 986.647 308.706C988.496 306.845 990.754 306.162 992.933 306.805C995.112 307.449 997.036 309.367 998.287 312.143C999.538 314.92 1000.02 318.331 999.618 321.638V321.638Z" fill="#A2A4AD"/>
<path id="Vector_6" d="M1015.49 383.938C1012.41 389.233 997.154 396.116 997.154 396.116C997.154 396.116 999.749 372.324 1002.83 367.03C1003.56 365.771 1004.45 364.743 1005.44 364.004C1006.44 363.265 1007.52 362.83 1008.62 362.724C1009.73 362.617 1010.83 362.841 1011.88 363.383C1012.93 363.925 1013.9 364.775 1014.73 365.883C1015.56 366.991 1016.24 368.336 1016.73 369.842C1017.22 371.347 1017.5 372.983 1017.57 374.657C1017.64 376.331 1017.5 378.009 1017.14 379.596C1016.78 381.183 1016.22 382.647 1015.49 383.906V383.938Z" fill="#A2A4AD"/>
<path id="Vector_7" d="M1020.49 435.169C1018.05 441.175 1003.78 451.898 1003.78 451.898C1003.78 451.898 1003.68 427.779 1006.12 421.773C1006.7 420.332 1007.46 419.077 1008.36 418.082C1009.26 417.087 1010.28 416.37 1011.36 415.975C1012.44 415.579 1013.56 415.511 1014.66 415.775C1015.76 416.039 1016.82 416.63 1017.76 417.514C1018.71 418.398 1019.53 419.557 1020.19 420.924C1020.84 422.292 1021.3 423.841 1021.56 425.482C1021.81 427.123 1021.85 428.824 1021.66 430.486C1021.48 432.149 1021.08 433.74 1020.49 435.169Z" fill="#A2A4AD"/>
<path id="Vector_8" d="M971.738 357.461C976.052 360.133 991.748 356.07 991.748 356.07C991.748 356.07 982.435 336.495 978.134 333.823C976.072 332.599 973.774 332.652 971.738 333.971C969.701 335.29 968.089 337.769 967.249 340.873C966.409 343.977 966.409 347.456 967.249 350.559C968.089 353.663 969.701 356.142 971.738 357.461V357.461Z" fill="#A2A4AD"/>
<path id="Vector_9" d="M978.088 417.261C982.744 417.864 996.908 406.871 996.908 406.871C996.908 406.871 984.162 392.412 979.523 391.809C978.409 391.637 977.283 391.802 976.212 392.295C975.141 392.788 974.145 393.599 973.282 394.68C972.42 395.762 971.709 397.093 971.19 398.595C970.67 400.097 970.354 401.741 970.259 403.43C970.164 405.12 970.291 406.821 970.635 408.435C970.978 410.048 971.53 411.543 972.259 412.83C972.988 414.117 973.878 415.172 974.879 415.933C975.88 416.694 976.971 417.145 978.088 417.261V417.261Z" fill="#A2A4AD"/>
<path id="Vector_10" d="M989.551 474.107C994.06 475.882 1009.26 468.678 1009.26 468.678C1009.26 468.678 998.31 451.167 993.801 449.385C991.66 448.638 989.41 449.186 987.531 450.912C985.652 452.638 984.292 455.406 983.74 458.627C983.189 461.848 983.489 465.268 984.577 468.159C985.666 471.05 987.457 473.184 989.568 474.107H989.551Z" fill="#A2A4AD"/>
<path id="Vector_11" opacity="0.25" d="M977.059 293.25C978.795 299.801 976.005 323.542 976.005 323.542C976.005 323.542 963.141 309.319 961.405 302.775C960.992 301.218 960.786 299.553 960.798 297.875C960.81 296.197 961.04 294.539 961.475 292.996C961.91 291.452 962.542 290.054 963.334 288.88C964.126 287.707 965.063 286.781 966.091 286.155C967.12 285.53 968.219 285.217 969.327 285.235C970.436 285.253 971.531 285.602 972.55 286.261C973.569 286.92 974.493 287.876 975.268 289.075C976.043 290.275 976.655 291.693 977.068 293.25H977.059Z" fill="black"/>
<path id="Vector_12" opacity="0.25" d="M999.618 321.638C998.724 328.56 987.858 346.193 987.858 346.193C987.858 346.193 982.164 323.67 983.058 316.747C983.509 313.456 984.798 310.567 986.647 308.706C988.496 306.845 990.754 306.162 992.933 306.805C995.112 307.449 997.036 309.367 998.287 312.143C999.538 314.92 1000.02 318.331 999.618 321.638V321.638Z" fill="black"/>
<path id="Vector_13" opacity="0.25" d="M1015.49 383.938C1012.41 389.233 997.154 396.116 997.154 396.116C997.154 396.116 999.749 372.324 1002.83 367.03C1003.56 365.771 1004.45 364.743 1005.44 364.004C1006.44 363.265 1007.52 362.83 1008.62 362.724C1009.73 362.617 1010.83 362.841 1011.88 363.383C1012.93 363.925 1013.9 364.775 1014.73 365.883C1015.56 366.991 1016.24 368.336 1016.73 369.842C1017.22 371.347 1017.5 372.983 1017.57 374.657C1017.64 376.331 1017.5 378.009 1017.14 379.596C1016.78 381.183 1016.22 382.647 1015.49 383.906V383.938Z" fill="black"/>
<path id="Vector_14" opacity="0.25" d="M1020.49 435.169C1018.05 441.175 1003.78 451.898 1003.78 451.898C1003.78 451.898 1003.68 427.779 1006.12 421.773C1006.7 420.332 1007.46 419.077 1008.36 418.082C1009.26 417.087 1010.28 416.37 1011.36 415.975C1012.44 415.579 1013.56 415.511 1014.66 415.775C1015.76 416.039 1016.82 416.63 1017.76 417.514C1018.71 418.398 1019.53 419.557 1020.19 420.924C1020.84 422.292 1021.3 423.841 1021.56 425.482C1021.81 427.123 1021.85 428.824 1021.66 430.486C1021.48 432.149 1021.08 433.74 1020.49 435.169Z" fill="black"/>
<path id="Vector_15" opacity="0.25" d="M971.738 357.461C976.052 360.133 991.748 356.07 991.748 356.07C991.748 356.07 982.435 336.495 978.134 333.823C976.072 332.599 973.774 332.652 971.738 333.971C969.701 335.29 968.089 337.769 967.249 340.873C966.409 343.977 966.409 347.456 967.249 350.559C968.089 353.663 969.701 356.142 971.738 357.461V357.461Z" fill="black"/>
<path id="Vector_16" opacity="0.25" d="M978.088 417.261C982.744 417.864 996.908 406.871 996.908 406.871C996.908 406.871 984.162 392.412 979.523 391.809C978.409 391.637 977.283 391.802 976.212 392.295C975.141 392.788 974.145 393.599 973.282 394.68C972.42 395.762 971.709 397.093 971.19 398.595C970.67 400.097 970.354 401.741 970.259 403.43C970.164 405.12 970.291 406.821 970.635 408.435C970.978 410.048 971.53 411.543 972.259 412.83C972.988 414.117 973.878 415.172 974.879 415.933C975.88 416.694 976.971 417.145 978.088 417.261V417.261Z" fill="black"/>
<path id="Vector_17" opacity="0.25" d="M989.551 474.107C994.06 475.882 1009.26 468.678 1009.26 468.678C1009.26 468.678 998.31 451.167 993.801 449.385C991.66 448.638 989.41 449.186 987.531 450.912C985.652 452.638 984.292 455.406 983.74 458.627C983.189 461.848 983.489 465.268 984.577 468.159C985.666 471.05 987.457 473.184 989.568 474.107H989.551Z" fill="black"/>
<path id="Vector_18" d="M1019.49 492.188C1019.49 492.188 984.438 464.21 973.652 420.248C969.122 401.788 960.952 385.867 950.035 375.208C944.841 370.167 939.353 365.857 933.64 362.332" stroke="#535461" stroke-width="2" stroke-miterlimit="10"/>
<path id="Vector_19" d="M926.74 334.675C930.076 339.591 933.881 363.011 933.881 363.011C933.881 363.011 918.316 357.884 914.976 352.987C913.407 350.613 912.519 347.4 912.503 344.042C912.488 340.684 913.346 337.452 914.892 335.045C916.438 332.637 918.549 331.249 920.766 331.18C922.983 331.111 925.129 332.366 926.74 334.675V334.675Z" fill="#A2A4AD"/>
<path id="Vector_20" d="M954.958 346.795C955.995 353.673 950.78 376.458 950.78 376.458C950.78 376.458 939.549 359.364 938.504 352.487C938.232 350.838 938.18 349.124 938.351 347.445C938.521 345.766 938.912 344.155 939.499 342.707C940.086 341.259 940.858 340.003 941.77 339.012C942.682 338.022 943.715 337.316 944.809 336.938C945.903 336.559 947.036 336.515 948.141 336.807C949.247 337.1 950.302 337.723 951.247 338.641C952.191 339.559 953.005 340.753 953.641 342.153C954.277 343.554 954.721 345.132 954.949 346.795H954.958Z" fill="#A2A4AD"/>
<path id="Vector_21" d="M986.131 394.014C984.734 400.744 972.636 416.447 972.636 416.447C972.636 416.447 968.64 393.104 970.036 386.374C970.35 384.74 970.877 383.217 971.585 381.895C972.293 380.573 973.169 379.479 974.16 378.677C975.151 377.875 976.239 377.381 977.358 377.223C978.477 377.066 979.606 377.249 980.678 377.762C981.749 378.274 982.743 379.106 983.6 380.208C984.456 381.31 985.159 382.66 985.666 384.179C986.173 385.697 986.475 387.354 986.553 389.052C986.632 390.75 986.485 392.454 986.122 394.065L986.131 394.014Z" fill="#A2A4AD"/>
<path id="Vector_22" d="M1004.43 437.784C1003.8 444.771 993.628 463.326 993.628 463.326C993.628 463.326 987.083 441.342 987.701 434.349C987.85 432.686 988.214 431.085 988.772 429.635C989.33 428.186 990.071 426.917 990.952 425.901C991.834 424.885 992.839 424.142 993.911 423.714C994.982 423.286 996.098 423.182 997.196 423.408C998.294 423.633 999.352 424.184 1000.31 425.029C1001.27 425.873 1002.1 426.995 1002.78 428.33C1003.45 429.665 1003.94 431.187 1004.22 432.809C1004.5 434.431 1004.57 436.122 1004.42 437.784H1004.43Z" fill="#A2A4AD"/>
<path id="Vector_23" d="M939.079 396.635C943.736 396.437 957.003 383.086 957.003 383.086C957.003 383.086 943.258 370.908 938.601 371.1C936.386 371.242 934.297 372.699 932.786 375.155C931.275 377.611 930.463 380.869 930.526 384.225C930.589 387.58 931.522 390.763 933.122 393.085C934.723 395.408 936.863 396.683 939.079 396.635V396.635Z" fill="#A2A4AD"/>
<path id="Vector_24" d="M960.889 447.411C965.291 445.11 975.311 426.369 975.311 426.369C975.311 426.369 959.792 420.966 955.386 423.267C953.318 424.426 951.632 426.765 950.689 429.783C949.746 432.801 949.621 436.257 950.34 439.413C951.059 442.569 952.566 445.173 954.538 446.668C956.509 448.163 958.789 448.43 960.889 447.411V447.411Z" fill="#A2A4AD"/>
<path id="Vector_25" d="M986.554 492.348C991.151 491.207 1003.12 475.299 1003.12 475.299C1003.12 475.299 988.425 465.999 983.828 467.139C981.652 467.739 979.719 469.608 978.444 472.345C977.169 475.082 976.655 478.467 977.013 481.771C977.37 485.076 978.57 488.036 980.355 490.014C982.139 491.993 984.366 492.831 986.554 492.348V492.348Z" fill="#A2A4AD"/>
</g>
<path id="Vector_26" d="M1016 496H1019.8L1047.57 281.201L1051.13 496H1055.16L1059.67 281.56L1086.73 496H1091L1072.61 275.224L1072.01 268.048L1035.93 262L1034.81 275.224L1016 496Z" fill="#464353"/>
<path id="Vector_27" d="M1092 219H1114V240H1092V219Z" fill="#464353"/>
<path id="Vector_28" d="M983 209.453L969.564 201H966.619C966.19 201 965.778 201.266 965.474 201.739C965.171 202.212 965 202.854 965 203.523V262.477C965 263.146 965.171 263.788 965.474 264.261C965.778 264.734 966.19 265 966.619 265H969.564L983 256.282V209.453Z" fill="#464353"/>
<path id="Vector_29" d="M983 213H1011V254H983V213Z" fill="#464353"/>
<path id="Vector_30" d="M1042 135H1060V140H1042V135Z" fill="#514E7F"/>
<path id="Vector_31" d="M1030 142H1081V197H1030V142Z" fill="#514E7F"/>
<path id="Vector_32" opacity="0.1" d="M1030 191H1081V197H1030V191Z" fill="black"/>
<path id="Vector_33" opacity="0.1" d="M1011 213H1012V254H1011V213Z" fill="black"/>
<path id="Vector_34" opacity="0.1" d="M1092 219H1099V240H1092V219Z" fill="black"/>
<path id="Vector_35" opacity="0.1" d="M1035 275H1072L1071.41 267.945L1036.1 262L1035 275Z" fill="black"/>
<path id="Vector_36" d="M1015.53 192H1094.47C1096.97 192 1099 195.104 1099 198.933V268.067C1099 271.896 1096.97 275 1094.47 275H1015.53C1013.03 275 1011 271.896 1011 268.067V198.933C1011 195.104 1013.03 192 1015.53 192Z" fill="#514E7F"/>
<path id="Vector_37" d="M983.325 210H983V257H983.325C984.034 257 984.715 256.646 985.216 256.015C985.718 255.385 986 254.53 986 253.639V213.361C986 212.47 985.718 211.615 985.216 210.985C984.715 210.354 984.034 210 983.325 210Z" fill="#514E7F"/>
<path id="Vector_38" d="M970 201H966.946C966.43 201 965.935 201.292 965.57 201.811C965.205 202.33 965 203.034 965 203.768V262.232C965 262.966 965.205 263.67 965.57 264.189C965.935 264.708 966.43 265 966.946 265H970V201Z" fill="#514E7F"/>
<path id="Vector_39" opacity="0.1" d="M1111 219H1114V240H1111V219Z" fill="black"/>
<path id="Vector_40" d="M1114.69 213H1116.31C1117.79 213 1119 215.052 1119 217.583V244.417C1119 246.948 1117.79 249 1116.31 249H1114.69C1113.21 249 1112 246.948 1112 244.417V217.583C1112 215.052 1113.21 213 1114.69 213Z" fill="#514E7F"/>
<path id="Vector_41" d="M1034.5 208C1033.12 208 1032 206.433 1032 204.5C1032 202.567 1033.12 201 1034.5 201C1035.88 201 1037 202.567 1037 204.5C1037 206.433 1035.88 208 1034.5 208Z" fill="#A2A4AD"/>
<path id="Vector_42" opacity="0.5" d="M1027.5 208C1026.12 208 1025 206.433 1025 204.5C1025 202.567 1026.12 201 1027.5 201C1028.88 201 1030 202.567 1030 204.5C1030 206.433 1028.88 208 1027.5 208Z" fill="#A2A4AD"/>
<path id="Vector_43" d="M1058.62 216.671L1058.79 216.152C1057.72 216.692 1056.7 217.41 1055.73 218.294C1056.15 212.721 1070.2 197.073 1072.73 197.073C1075.26 197.073 1078.07 190.429 1078.07 190.429C1078.07 190.429 1085.38 188.716 1086.5 186.901C1087.63 185.086 1095.22 186.145 1097.04 186.786C1098.87 187.427 1101.68 185.074 1101.68 185.074C1101.68 185.074 1103.22 181.226 1105.19 181.226C1107.15 181.226 1109.26 176.942 1109.26 176.942C1109.26 176.942 1111.09 174.377 1112.78 173.94C1114.46 173.504 1116.57 170.734 1117.56 168.585C1118.54 166.437 1123.46 165.379 1126.26 166.02C1129.07 166.662 1136.66 165.148 1136.66 165.148C1133.57 163.006 1132.83 157.863 1132.83 157.863C1135.59 157.645 1142.86 148.358 1142.86 148.358C1142.86 148.358 1142.56 151.36 1142.22 155.548L1142.68 154.63L1142.75 154.707C1142.89 151.72 1142.92 148.721 1142.81 145.729C1142.81 145.498 1142.78 145.267 1142.78 145.03C1140.98 142.631 1139.64 139.53 1138.92 136.061C1138.19 132.592 1138.1 128.888 1138.66 125.348C1138.74 124.861 1138.83 124.386 1138.93 123.918C1138.39 124.258 1137.82 124.474 1137.24 124.559H1136.94C1136.59 124.563 1136.25 124.454 1135.93 124.239C1135.61 124.025 1135.32 123.71 1135.09 123.315V123.315C1135.01 123.163 1134.94 123 1134.88 122.828C1134.87 122.795 1134.86 122.761 1134.85 122.725C1134.8 122.568 1134.75 122.405 1134.72 122.238C1134.71 122.179 1134.7 122.119 1134.69 122.058C1134.67 121.927 1134.65 121.794 1134.64 121.66C1134.64 121.551 1134.64 121.436 1134.64 121.321C1134.64 121.205 1134.64 121.154 1134.64 121.07C1134.66 120.084 1134.8 119.113 1135.06 118.21C1135.5 116.556 1136.14 114.92 1136.09 113.131C1136.09 112.983 1136.07 112.842 1136.06 112.701C1135.94 111.297 1135.46 109.995 1135.17 108.642V108.584C1135.13 108.385 1135.09 108.186 1135.06 107.988C1135.05 107.929 1135.04 107.869 1135.03 107.808C1135 107.573 1134.98 107.335 1134.96 107.096C1134.96 107.096 1134.96 107.064 1134.96 107.045C1134.86 104.364 1136.28 102.023 1137.89 100.94C1139.33 99.9648 1140.98 99.7019 1142.3 98.3743C1143.8 96.8673 1144.63 94.2571 1145.74 92.0959C1147.36 88.9534 1149.89 86.6062 1152.48 87.0551C1154.08 87.3309 1155.53 88.6071 1157.12 89.1009C1159.54 89.8641 1162.09 88.7546 1164.49 89.6076C1165.08 89.755 1165.61 90.2089 1165.99 90.8902C1166.15 91.234 1166.26 91.6324 1166.3 92.051V92.051C1166.33 92.4383 1166.33 92.8308 1166.3 93.2182V93.2502C1166.27 93.6199 1166.23 93.9863 1166.17 94.3469L1166.13 94.5714C1166.13 94.6483 1166.11 94.7188 1166.09 94.7958C1166.08 94.8728 1166.04 95.0972 1166.01 95.2447C1165.97 95.4948 1165.93 95.745 1165.89 96.0015V96.0913C1165.85 96.3542 1165.81 96.6171 1165.78 96.8865C1165.71 97.4417 1165.67 98.0029 1165.65 98.5667V98.5667C1165.55 100.154 1165.77 101.748 1166.29 103.133C1167.35 105.698 1169.58 106.833 1170.56 109.508C1170.79 110.153 1170.93 110.861 1170.98 111.592C1171 111.835 1171 112.079 1171 112.323V112.419C1171 112.631 1171 112.842 1170.96 113.06C1170.96 113.112 1170.96 113.163 1170.96 113.214C1170.94 113.405 1170.91 113.593 1170.88 113.779C1170.88 113.843 1170.86 113.901 1170.84 113.958C1170.8 114.178 1170.74 114.392 1170.68 114.6V114.6C1170.23 116.03 1169.37 117.21 1169.2 118.762C1169.2 118.807 1169.2 118.852 1169.18 118.903C1169.08 120.07 1169.39 121.212 1169.56 122.36C1169.58 122.499 1169.6 122.64 1169.61 122.783V122.783C1169.61 122.828 1169.61 122.873 1169.61 122.917C1169.61 122.962 1169.61 123.11 1169.61 123.212C1169.61 123.315 1169.61 123.321 1169.61 123.379C1169.61 123.437 1169.61 123.552 1169.61 123.636C1169.61 123.696 1169.61 123.755 1169.61 123.815C1169.61 123.899 1169.61 123.982 1169.61 124.059C1169.61 124.136 1169.61 124.174 1169.61 124.232C1169.61 124.29 1169.58 124.392 1169.57 124.469L1169.54 124.63C1169.52 124.706 1169.5 124.781 1169.47 124.854L1169.42 124.995C1169.39 125.073 1169.36 125.148 1169.32 125.22C1169.31 125.255 1169.29 125.29 1169.27 125.322C1169.22 125.425 1169.15 125.518 1169.08 125.598C1168.5 126.239 1167.59 126.073 1167.11 126.881C1167.06 126.979 1167.02 127.086 1166.98 127.201L1166.95 127.278C1166.92 127.391 1166.89 127.51 1166.87 127.631V127.631C1166.81 128.113 1166.81 128.611 1166.87 129.093C1167.04 130.376 1167.4 131.543 1167.59 132.8C1167.63 133.057 1167.65 133.32 1167.67 133.583C1167.67 133.704 1167.67 133.82 1167.7 133.935V134.012C1167.7 134.121 1167.7 134.237 1167.7 134.346C1167.7 134.455 1167.7 134.403 1167.7 134.435C1167.7 134.596 1167.7 134.763 1167.67 134.923C1167.65 135.083 1167.67 135.077 1167.65 135.147L1167.62 135.333C1167.62 135.417 1167.59 135.5 1167.57 135.583L1167.54 135.744C1167.51 135.834 1167.49 135.923 1167.46 136.013C1167.45 136.055 1167.43 136.096 1167.42 136.135C1167.38 136.266 1167.32 136.391 1167.27 136.507C1166.76 137.559 1165.92 137.911 1165.03 137.918C1164.53 137.913 1164.03 137.827 1163.54 137.661C1163.43 138.052 1163.32 138.444 1163.19 138.822C1162.58 140.694 1161.78 142.408 1160.82 143.901C1160.82 144.1 1160.85 144.292 1160.86 144.498C1160.96 145.96 1161.08 147.531 1161.21 149.115C1162.3 148.352 1163.15 148.057 1163.48 148.609C1164.89 150.969 1163.48 159.113 1163.48 159.113C1163.48 159.113 1170.37 159.113 1172.06 161.467C1173.74 163.82 1176.83 161.467 1176.83 161.467C1176.83 161.467 1183.16 162.544 1182.74 164.475C1182.31 166.405 1186.11 164.475 1186.11 164.475C1186.11 164.475 1188.78 164.904 1188.64 167.681C1188.49 170.458 1192.71 171.747 1192.15 173.678C1191.59 175.608 1194.68 176.884 1194.68 176.884C1194.68 176.884 1197.77 176.672 1196.65 179.449C1196.65 179.449 1198.33 185.452 1199.74 185.862C1201.14 186.273 1202.97 191.217 1202.97 191.217C1202.97 191.217 1208.38 192.718 1208.14 195.29C1207.89 197.861 1216.46 216.261 1216.46 216.261C1216.46 216.261 1219.27 225.079 1217.3 231.511C1215.33 237.944 1213.93 242.228 1213.51 244.581C1213.09 246.935 1207.98 257.299 1208.02 259.229C1208.02 259.832 1206.75 263.077 1205.03 267.194L1205.54 267.989L1206.64 269.727C1206.64 269.727 1210.16 283.015 1205.94 283.657C1202.38 284.195 1199.82 284.586 1198.53 284.048C1198.32 283.973 1198.12 283.84 1197.94 283.657L1197.89 283.599C1196.35 287.043 1195.26 289.448 1195.26 289.448C1195.26 289.448 1195.11 289.108 1194.84 288.524L1194.42 289.441C1194.42 289.441 1194.08 288.71 1193.51 287.517C1193.7 293.347 1193.72 299.093 1193.72 299.093C1193.72 299.093 1191.89 298.663 1192.73 311.522C1193.58 324.38 1187.68 334.878 1187.68 334.878V353.957C1187.68 353.957 1187.68 354.438 1187.62 355.24C1187.46 357.978 1186.95 364.437 1185.43 368.708C1183.46 374.274 1185.43 388.851 1185.43 388.851C1185.43 388.851 1185.56 400.741 1185.09 415.569C1185.09 415.973 1185.06 416.389 1185.05 416.8C1193.57 427.638 1202.71 442.004 1202.71 442.004C1202.26 442.194 1201.84 442.486 1201.45 442.869L1201.96 443.863L1204.28 448.218L1206.08 451.591L1203.23 464.924L1200.12 463.077C1200.12 463.077 1198.44 467.521 1198.79 470.536C1198.85 471.081 1198.99 471.595 1199.21 472.03C1199.32 472.249 1199.4 472.5 1199.43 472.767C1200.25 477.596 1196.85 498.42 1191.47 499.324C1191.47 499.324 1189.64 500.241 1189.06 497.74C1188.78 496.535 1188.78 494.534 1189.41 491.282C1189.41 491.282 1192.26 486.062 1190.42 480.438C1189.34 477.148 1187.55 472.742 1186.26 469.631L1185.73 468.349C1184.57 470.574 1183.86 472.004 1183.86 472.004L1179.72 465.232C1179.63 465.521 1179.54 465.803 1179.45 466.072C1179.14 467.015 1178.78 467.92 1178.38 468.778L1175.57 485.716L1174.44 485.331C1174.47 485.741 1174.48 486.177 1174.5 486.613C1174.59 489.653 1174.5 493.597 1173.58 496.413C1172.88 498.567 1171.72 500.068 1169.81 499.998C1163.28 499.754 1161.38 494.373 1161.38 494.373V480.906L1159.13 480.143C1159.13 480.143 1159.3 450.552 1159.88 434.051C1159.88 433.686 1159.9 433.333 1159.91 432.987C1159.91 432.935 1159.91 432.884 1159.91 432.839L1145.49 409.232L1144.38 408.559C1135.1 402.986 1134.96 388.627 1134.96 388.627C1134.96 388.627 1134.96 380.7 1133.84 374.056C1132.72 367.412 1133.7 332.903 1135.8 324.335C1137.91 315.767 1138.62 306.109 1138.62 306.109C1138.62 306.109 1136.51 301.62 1138.62 297.881C1139.21 296.762 1139.71 295.528 1140.09 294.213L1137.35 293.526L1135.77 293.129L1134.92 292.911C1135.34 298.58 1135.42 302.934 1134.42 303.973C1131.32 307.18 1120.93 296.47 1120.93 296.47C1124.72 296.47 1126.83 253.393 1126.06 252.322C1125.29 251.251 1124.14 229.664 1125.14 225.816C1126.15 221.968 1121.61 204.788 1121.61 204.788L1120.91 203.21C1120.91 203.21 1104.32 214.221 1102.5 216.331C1100.67 218.441 1094.91 211.201 1093.93 214.003C1092.95 216.806 1086.76 220.981 1086.76 220.981C1086.76 220.981 1077.63 219.576 1076.65 223.007C1075.67 226.438 1069.76 234.474 1069.76 234.474C1069.76 232.59 1069.68 230.708 1069.54 228.837C1069.41 229.279 1069.3 229.728 1069.17 230.184C1066.37 240.259 1061.71 253.015 1057.4 246.152C1052.51 238.354 1056.23 223.937 1058.62 216.671ZM1183.6 262.205V262.326L1183.63 262.275L1183.6 262.205ZM1186.87 212.772L1188.65 241.445L1192.17 246.98L1192.59 247.66L1196.22 241.65C1196.22 241.65 1198.05 240.368 1196.22 238.008C1194.39 235.648 1199.31 230.312 1199.31 230.312C1199.31 230.312 1199.45 226.464 1197.62 225.387C1195.79 224.309 1193.4 217.242 1193.4 217.242L1186.8 212.111L1186.87 212.772ZM1163.36 359.53C1163.23 359.35 1163.09 359.193 1162.94 359.062C1162.15 358.383 1161.65 359.126 1161.39 360.435C1161.04 362.627 1161.15 364.928 1161.69 367.027C1162.67 370.458 1160.28 384.176 1160.28 384.176C1160.28 384.176 1163.37 386.312 1163.93 390.391C1164.02 390.892 1164.16 391.366 1164.35 391.789C1164.39 391.429 1164.42 391.083 1164.46 390.75C1164.73 388.184 1164.88 386.53 1164.88 386.53C1165.38 383.229 1165.48 379.815 1165.16 376.461C1164.72 372.338 1163.81 363.962 1163.48 360.787C1163.39 360.018 1163.35 359.556 1163.34 359.505L1163.36 359.53Z" fill="url(#paint0_linear)"/>
<path id="Vector_44" d="M1143.38 151.831L1142.23 151L1139 158.413L1140.24 160H1144C1144 160 1143.87 155.962 1143.78 155.817C1143.69 155.673 1143.38 151.831 1143.38 151.831Z" fill="#464353"/>
<path id="Vector_45" d="M1161 478V495.441C1161 495.441 1162.88 500.749 1169.34 500.99C1170.12 501.06 1170.9 500.758 1171.57 500.125C1172.24 499.493 1172.76 498.56 1173.06 497.457C1173.96 494.68 1174.06 490.786 1173.97 487.786C1173.93 486.285 1173.82 484.79 1173.66 483.308L1161 478Z" fill="#3F3D56"/>
<path id="Vector_46" opacity="0.1" d="M1161 478V483.515L1174 488C1173.95 486.467 1173.85 484.939 1173.69 483.424L1161 478Z" fill="black"/>
<path id="Vector_47" d="M1159 481.426L1175.14 487L1177.9 470.067C1178.29 469.208 1178.64 468.303 1178.95 467.36C1179.12 466.82 1179.3 466.248 1179.46 465.65C1182.47 454.972 1183.81 435.711 1184.38 419.324C1184.41 418.495 1184.43 417.672 1184.46 416.862C1184.92 402.037 1184.79 390.144 1184.79 390.144C1184.79 390.144 1182.86 375.57 1184.79 370.003C1186.28 365.708 1186.79 359.254 1186.94 356.502C1186.98 355.686 1187 355.217 1187 355.217L1186.7 354.002L1185.49 349H1172.1L1164.32 359.228L1163.14 360.784L1163.27 362.07C1163.61 365.246 1164.49 373.641 1164.93 377.743C1165.24 381.096 1165.14 384.511 1164.65 387.81C1164.65 387.81 1164.49 389.443 1164.23 392.034C1164.17 392.677 1164.1 393.359 1164.02 394.098C1163.03 403.6 1161.18 420.951 1160.39 425.097C1160.17 426.235 1159.98 429.09 1159.83 432.953C1159.8 433.725 1159.77 434.528 1159.74 435.371C1159.16 451.841 1159 481.426 1159 481.426Z" fill="#514E7F"/>
<path id="Vector_48" opacity="0.1" d="M1167 413V413.186C1167 413.186 1168.87 418.737 1175.3 418.99C1176.08 419.063 1176.85 418.747 1177.52 418.085C1178.18 417.424 1178.7 416.449 1179 415.295C1176.12 416.429 1171.44 417.159 1167 413Z" fill="black"/>
<path id="Vector_49" d="M1057.3 248.051C1061.45 254.939 1065.88 242.132 1068.56 232.016C1070.06 226.323 1071 221.475 1071 221.475L1059.98 214C1059.98 214 1059.3 215.724 1058.45 218.454C1056.17 225.748 1052.61 240.221 1057.3 248.051Z" fill="#A1616A"/>
<path id="Vector_50" d="M1142.93 147.476C1143.11 153.913 1142.81 160.361 1142.02 166.684C1142.02 166.684 1164.93 170.585 1162.87 164.954C1161.66 161.651 1160.88 152.932 1160.45 146.267C1160.13 141.546 1159.99 137.859 1159.99 137.859C1159.99 137.859 1138.04 123.99 1141.34 135.694C1142.32 139.186 1142.78 143.321 1142.93 147.476Z" fill="#A1616A"/>
<path id="Vector_51" d="M1139.95 240.154L1143 297L1129 293.398L1131.45 246.517L1130.63 234L1139.95 240.154Z" fill="#464353"/>
<path id="Vector_52" opacity="0.1" d="M1129 293.398L1135.08 294.964L1143 297L1142.44 286.627L1139.95 240.154L1136.77 238.054L1134.52 236.571L1130.63 234L1131.45 246.517L1129 293.398Z" fill="black"/>
<path id="Vector_53" d="M1189.91 481.16C1191.8 486.732 1188.88 491.903 1188.88 491.903C1188.23 495.131 1188.22 497.105 1188.51 498.27C1189.12 500.747 1190.99 499.837 1190.99 499.837C1196.9 498.881 1200.47 475.487 1198.96 472.806C1197.44 470.126 1199.88 463.968 1199.88 463.968L1203.07 465.796L1206 452.589L1204.15 449.246L1201.76 444.929L1200.15 442L1184 466.751C1184 466.751 1184.69 468.273 1185.64 470.457C1186.97 473.519 1188.8 477.913 1189.91 481.16Z" fill="#3F3D56"/>
<path id="Vector_54" opacity="0.1" d="M1159 435.107L1178.49 467C1181.91 456.819 1183.38 436.394 1184 419.151C1180.37 414.541 1176.86 410.571 1174.21 408.656C1174.21 408.656 1165.24 398.751 1163.34 394C1162.34 403.464 1160.46 420.745 1159.66 424.875C1159.39 426.232 1159.18 430.042 1159 435.107Z" fill="black"/>
<path id="Vector_55" opacity="0.1" d="M1164 359L1187 353.89L1185.75 349H1172L1164 359Z" fill="black"/>
<path id="Vector_56" opacity="0.1" d="M1159 433.001L1178.92 465C1181.98 454.56 1183.34 435.729 1183.92 419.707C1183.95 418.896 1183.97 418.092 1184 417.3C1180.34 412.724 1176.79 408.789 1174.13 406.891C1174.13 406.891 1165.76 397.821 1163.48 393C1163.42 393.629 1163.35 394.295 1163.27 395.018C1162.26 404.308 1160.38 421.272 1159.58 425.326C1159.36 426.432 1159.18 429.223 1159 433.001Z" fill="black"/>
<path id="Vector_57" opacity="0.1" d="M1184 466.354C1184 466.354 1184.7 467.851 1185.66 470C1189.15 463.703 1197.43 449.205 1202 444.882L1200.36 442L1184 466.354Z" fill="black"/>
<path id="Vector_58" d="M1133.48 375.354C1134.61 381.983 1134.61 389.888 1134.61 389.888C1134.61 389.888 1134.76 404.205 1144.12 409.764L1145.24 410.405L1183.98 473C1183.98 473 1198.32 444.79 1203 443.078C1203 443.078 1184.13 413.797 1175.19 407.385C1175.19 407.385 1164.4 395.633 1163.83 391.575C1163.27 387.516 1160.14 385.375 1160.14 385.375C1160.14 385.375 1162.56 371.699 1161.56 368.275C1161.02 366.183 1160.91 363.889 1161.26 361.704C1161.53 360.421 1162.04 359.658 1162.83 360.332C1162.99 360.462 1163.13 360.619 1163.26 360.8L1187.81 355.241V336.244C1187.81 336.244 1193.77 325.774 1192.91 312.951C1192.06 300.128 1193.91 300.558 1193.91 300.558C1193.91 300.558 1193.82 278.9 1192.61 277.092C1191.39 275.284 1179.74 267 1179.74 267L1143.2 276.777L1141.69 287.305C1141.69 287.305 1140.41 295.678 1138.28 299.397C1136.15 303.116 1138.28 307.597 1138.28 307.597C1138.28 307.597 1137.57 317.215 1135.44 325.774C1133.31 334.333 1132.34 368.731 1133.48 375.354Z" fill="#514E7F"/>
<path id="Vector_59" opacity="0.1" d="M1141.35 135.607C1142.36 139.034 1142.83 143.118 1142.99 147.17C1145.52 150.48 1148.8 152.202 1152.15 151.981C1155.5 151.76 1158.67 149.614 1161 145.983C1160.67 141.35 1160.53 137.732 1160.53 137.732C1160.53 137.732 1137.96 124.12 1141.35 135.607Z" fill="black"/>
<path id="Vector_60" d="M1138 132.012C1138 137.112 1139.27 142.017 1141.55 145.726C1143.82 149.435 1146.93 151.667 1150.24 151.966C1153.55 152.264 1156.81 150.607 1159.35 147.332C1161.89 144.058 1163.52 139.414 1163.91 134.35C1164.3 129.285 1163.42 124.183 1161.44 120.087C1159.47 115.991 1156.55 113.21 1153.29 112.312C1150.03 111.415 1146.66 112.469 1143.89 115.259C1141.11 118.049 1139.14 122.364 1138.36 127.322C1138.12 128.858 1138 130.432 1138 132.012V132.012Z" fill="#A1616A"/>
<path id="Vector_61" opacity="0.1" d="M1148.21 167.446C1148.21 167.446 1157.67 160.861 1158.26 160.007C1158.85 159.153 1178.48 234.801 1178.48 234.801L1184 272.408C1184 272.408 1154.55 291.313 1148.18 288.763C1141.81 286.214 1141.25 288.763 1141.25 288.763C1141.25 288.763 1134.73 233.946 1132.61 229.064C1130.49 224.181 1134.59 174.457 1134.59 174.457L1141.95 160.001L1148.21 167.446Z" fill="black"/>
<path id="Vector_62" opacity="0.1" d="M1148.21 164.503C1148.21 164.503 1157.67 157.868 1158.26 157.007C1158.85 156.146 1178.48 232.38 1178.48 232.38L1184 270.279C1184 270.279 1154.55 289.331 1148.18 286.762C1141.81 284.192 1141.25 286.762 1141.25 286.762C1141.25 286.762 1134.73 231.52 1132.61 226.599C1130.49 221.679 1134.59 171.569 1134.59 171.569L1141.95 157.001L1148.21 164.503Z" fill="black"/>
<path id="Vector_63" d="M1132.61 228.058C1133.04 229.071 1133.68 232.22 1134.4 236.58C1134.9 239.614 1135.44 243.228 1136 247.116C1138.5 264.664 1141.25 287.764 1141.25 287.764C1141.25 287.764 1141.42 286.986 1142.65 286.718C1143.64 286.502 1145.34 286.623 1148.17 287.764C1154.54 290.313 1184 271.401 1184 271.401L1183.15 265.665L1178.48 233.794C1178.48 233.794 1158.79 158.153 1158.23 159.007C1157.88 159.523 1154.2 162.194 1151.4 164.177C1149.61 165.451 1148.17 166.439 1148.17 166.439L1142.23 159.39L1141.9 159.001L1134.57 173.451C1134.57 173.451 1130.49 223.169 1132.61 228.058Z" fill="#A2A4AD"/>
<path id="Vector_64" opacity="0.1" d="M1155.62 173.804C1154.79 178.675 1156.72 186.682 1156.72 186.682C1156.72 186.682 1163.36 211.601 1165.3 223.117C1167.23 234.633 1178.31 257.842 1178.31 257.842C1178.31 257.842 1179.94 260.332 1182.22 263.796C1182.47 264.183 1182.73 264.582 1183 265L1178.44 233.328C1178.44 233.328 1159.22 158.158 1158.67 159.007C1158.33 159.52 1154.74 162.174 1152 164.144C1153.71 166.526 1156.17 170.58 1155.62 173.804Z" fill="black"/>
<path id="Vector_65" d="M1156.31 173.592C1155.46 178.539 1157.44 186.67 1157.44 186.67C1157.44 186.67 1164.22 211.978 1166.21 223.673C1168.19 235.368 1179.51 258.938 1179.51 258.938C1179.51 258.938 1181.17 261.466 1183.5 264.985C1183.78 265.403 1184.06 265.834 1184.35 266.272C1188.89 273.136 1195.28 282.759 1197.28 285.571C1197.57 285.989 1197.77 286.259 1197.86 286.349C1198.04 286.534 1198.24 286.667 1198.45 286.741C1199.76 287.282 1202.33 286.889 1205.91 286.349C1210.15 285.706 1206.62 272.415 1206.62 272.415L1205.5 270.672L1204.49 269.077L1192.93 251.045L1192.09 249.688L1188.55 244.162L1186.76 215.471L1186.71 214.782C1186.71 214.782 1187.24 212.962 1188.05 210.183C1190.21 202.663 1194.45 188.15 1196 183.46C1196.18 182.914 1196.32 182.508 1196.42 182.257C1196.42 182.225 1196.45 182.193 1196.46 182.167C1197.59 179.382 1194.48 179.594 1194.48 179.594C1194.48 179.594 1191.37 178.308 1191.94 176.378C1192.51 174.448 1188.26 173.161 1188.4 170.376C1188.54 167.59 1185.86 167.159 1185.86 167.159C1185.86 167.159 1182.04 169.089 1182.47 167.159C1182.89 165.229 1176.53 164.155 1176.53 164.155C1176.53 164.155 1173.42 166.516 1171.73 164.155C1170.03 161.794 1163.07 161.801 1163.07 161.801C1163.07 161.801 1164.49 153.65 1163.07 151.289C1161.65 148.928 1151 161.801 1151 161.801C1151 161.801 1157.16 168.652 1156.31 173.592Z" fill="#464353"/>
<path id="Vector_66" opacity="0.1" d="M1192 282.433C1192 282.433 1179.71 307.516 1171.13 299.374C1162.55 291.231 1182.68 270 1182.68 270L1192 282.433Z" fill="black"/>
<path id="Vector_67" d="M1192 280.433C1192 280.433 1179.71 305.516 1171.13 297.374C1162.55 289.231 1182.68 268 1182.68 268L1192 280.433Z" fill="#A1616A"/>
<path id="Vector_68" opacity="0.1" d="M1135.52 294C1134.6 282.357 1131.92 264.865 1134.1 259.559C1135.18 256.928 1135.98 251.913 1136.57 246.424C1136.88 243.471 1137.13 240.378 1137.33 237.444C1137.87 229.659 1138.04 222.993 1138.04 222.993C1138.04 222.993 1143.28 189.147 1142.27 182.19C1141.63 177.839 1142.36 166.937 1143 159.386L1142.66 159L1135.12 173.337C1135.12 173.337 1130.9 222.664 1133.08 227.515C1133.52 228.521 1134.18 231.645 1134.92 235.97L1130.75 233.441L1131.62 245.88L1129 292.47L1135.52 294Z" fill="black"/>
<path id="Vector_69" d="M1142 151C1142 151 1134.65 160.215 1131.86 160.425C1131.86 160.425 1132.61 165.527 1135.73 167.657C1135.73 167.657 1128.06 169.175 1125.22 168.518C1122.38 167.861 1117.41 168.933 1116.41 171.069C1115.42 173.205 1113.26 175.947 1111.56 176.368C1109.85 176.789 1108 179.346 1108 179.346L1120.51 206.979C1120.51 206.979 1125.06 223.986 1124.06 227.813C1123.07 231.639 1124.21 253.111 1124.99 254.169C1125.77 255.228 1123.64 297.961 1119.8 297.961C1119.8 297.961 1130.31 308.592 1133.44 305.403C1136.57 302.215 1129.46 267.778 1132.59 259.909C1135.72 252.039 1136.42 223.036 1136.42 223.036C1136.42 223.036 1141.54 188.912 1140.54 181.897C1139.54 174.882 1142 151 1142 151Z" fill="#464353"/>
<path id="Vector_70" opacity="0.1" d="M1058 218.456C1061.72 216.664 1067.42 216.612 1068.47 232C1070.02 226.312 1071 221.468 1071 221.468L1059.58 214C1059.58 214 1058.88 215.728 1058 218.456Z" fill="black"/>
<path id="Vector_71" d="M1116 178L1109.04 179.268C1109.04 179.268 1106.91 183.496 1104.93 183.496C1102.95 183.496 1101.39 187.299 1101.39 187.299C1101.39 187.299 1098.55 189.619 1096.7 188.985C1094.86 188.351 1087.2 187.305 1086.07 189.099C1084.93 190.893 1077.55 192.579 1077.55 192.579C1077.55 192.579 1074.72 199.127 1072.16 199.127C1069.61 199.127 1055.43 214.556 1055 220.045C1055 220.045 1069.04 206.734 1069.18 236C1069.18 236 1075.14 228.077 1076.14 224.698C1077.13 221.319 1086.35 222.695 1086.35 222.695C1086.35 222.695 1092.59 218.568 1093.59 215.824C1094.58 213.079 1100.39 220.197 1102.24 218.112C1104.08 216.026 1120.82 205.174 1120.82 205.174L1126 190.678L1116 178Z" fill="#464353"/>
<path id="Vector_72" d="M1147.5 204C1147.22 204 1147 203.105 1147 202C1147 200.895 1147.22 200 1147.5 200C1147.78 200 1148 200.895 1148 202C1148 203.105 1147.78 204 1147.5 204Z" fill="#3F3D56"/>
<path id="Vector_73" d="M1148.5 241C1148.22 241 1148 240.105 1148 239C1148 237.895 1148.22 237 1148.5 237C1148.78 237 1149 237.895 1149 239C1149 240.105 1148.78 241 1148.5 241Z" fill="#3F3D56"/>
<path id="Vector_74" d="M1147.5 222C1147.22 222 1147 221.105 1147 220C1147 218.895 1147.22 218 1147.5 218C1147.78 218 1148 218.895 1148 220C1148 221.105 1147.78 222 1147.5 222Z" fill="#3F3D56"/>
<path id="Vector_75" d="M1150.5 262C1149.67 262 1149 261.105 1149 260C1149 258.895 1149.67 258 1150.5 258C1151.33 258 1152 258.895 1152 260C1152 261.105 1151.33 262 1150.5 262Z" fill="#3F3D56"/>
<path id="Vector_76" opacity="0.1" d="M1189 499.229C1189.59 501.765 1191.41 500.833 1191.41 500.833C1197.14 499.855 1200.61 475.901 1199.14 473.156C1197.67 470.411 1200.06 464.074 1200.06 464.074L1203.16 465.945L1206 452.423L1204.21 449C1202.42 453.792 1199.87 460.684 1199.27 462.444C1198.12 466.094 1197.58 470.126 1197.69 474.18C1197.78 478.417 1194.61 498.681 1189 499.229Z" fill="black"/>
<path id="Vector_77" opacity="0.1" d="M1138.01 126.822C1138.3 126.678 1138.59 126.509 1138.86 126.34C1139.84 125.758 1140.86 125.088 1141.45 123.836C1141.99 122.672 1142.17 121.031 1143.01 120.368C1143.98 119.604 1145.14 120.637 1146.19 120.994C1147.44 121.426 1148.74 120.912 1149.95 120.255C1151.77 119.272 1154.3 117.463 1156.16 119.335C1157.6 120.787 1157.04 123.867 1157.41 126.065C1157.98 129.476 1160.45 131.699 1160.91 135.148C1161.12 136.67 1160.98 138.529 1161.82 139.474C1162.07 139.731 1162.34 139.91 1162.64 140C1163.46 137.552 1163.92 134.877 1163.99 132.149C1164.06 129.422 1163.74 126.702 1163.05 124.17C1162.36 121.637 1161.31 119.347 1159.98 117.45C1158.64 115.553 1157.05 114.092 1155.31 113.162C1153.57 112.231 1151.71 111.853 1149.86 112.051C1148.01 112.249 1146.21 113.02 1144.58 114.312C1142.94 115.604 1141.51 117.389 1140.38 119.55C1139.25 121.711 1138.44 124.2 1138 126.853L1138.01 126.822Z" fill="black"/>
<path id="Vector_78" d="M1150.21 119.388C1149 120.064 1147.67 120.592 1146.41 120.142C1145.33 119.762 1144.18 118.699 1143.21 119.498C1142.35 120.187 1142.18 121.867 1141.63 123.065C1141.04 124.353 1140 125.074 1139.02 125.64C1138.28 126.155 1137.49 126.486 1136.69 126.619C1136.28 126.678 1135.87 126.597 1135.5 126.382C1135.12 126.166 1134.77 125.822 1134.5 125.376C1133.73 123.992 1133.97 121.919 1134.42 120.264C1134.88 118.609 1135.52 116.961 1135.47 115.171C1135.42 113.046 1134.39 111.198 1134.3 109.08C1134.19 106.395 1135.64 104.051 1137.28 102.963C1138.75 101.991 1140.42 101.721 1141.77 100.388C1143.3 98.881 1144.14 96.2669 1145.27 94.1035C1146.92 90.9549 1149.5 88.6048 1152.14 89.0555C1153.77 89.3324 1155.24 90.6072 1156.86 91.103C1159.32 91.8692 1161.92 90.7553 1164.37 91.6117C1164.96 91.7512 1165.5 92.1951 1165.9 92.8672C1166.5 94.0777 1166.19 95.7711 1165.92 97.2263C1165.45 99.8468 1165.24 102.815 1166.19 105.12C1167.27 107.728 1169.54 108.829 1170.54 111.507C1170.82 112.293 1170.98 113.17 1171 114.065C1171.02 114.96 1170.89 115.849 1170.63 116.658C1170.16 118.139 1169.25 119.343 1169.11 120.972C1169.01 122.144 1169.33 123.284 1169.5 124.43C1169.66 125.576 1169.62 127.005 1168.99 127.649C1168.36 128.293 1167.47 128.132 1166.99 128.937C1166.84 129.257 1166.74 129.622 1166.7 130.005C1166.66 130.389 1166.68 130.781 1166.76 131.152C1166.93 132.44 1167.3 133.605 1167.49 134.867C1167.61 135.486 1167.65 136.138 1167.59 136.778C1167.53 137.419 1167.39 138.034 1167.16 138.582C1166.33 140.269 1164.64 140.166 1163.3 139.716C1162.91 139.623 1162.54 139.403 1162.21 139.072C1161.35 138.099 1161.5 136.187 1161.29 134.622C1160.82 131.081 1158.34 128.783 1157.76 125.28C1157.39 123.02 1157.95 119.846 1156.49 118.352C1154.6 116.517 1152.04 118.378 1150.21 119.388Z" fill="#464353"/>
<path id="Vector_79" opacity="0.1" d="M1152 351C1152 351 1138.43 364.01 1138 369L1152 351Z" fill="black"/>
<path id="Vector_80" opacity="0.1" d="M1153 361C1153 361 1137.16 372.885 1138.04 377L1153 361Z" fill="black"/>
<path id="Vector_81" opacity="0.1" d="M1154 372C1154 372 1144.61 378.276 1144 382L1154 372Z" fill="black"/>
<path id="Vector_82" opacity="0.1" d="M1151 387C1151 387 1144.44 394.642 1143.13 392.677C1141.82 390.713 1151 387 1151 387Z" fill="black"/>
<path id="Vector_83" opacity="0.1" d="M1158 391C1158 391 1154.92 402.296 1156.4 402.974C1157.88 403.652 1158 391 1158 391Z" fill="black"/>
<path id="Vector_84" opacity="0.1" d="M1177 201C1177 201 1184.95 208.039 1182.55 209.802C1180.15 211.565 1177 201 1177 201Z" fill="black"/>
<path id="Vector_85" opacity="0.1" d="M1177 177C1177 177 1184.58 197.365 1181.07 195.927C1177.56 194.489 1177 177 1177 177Z" fill="black"/>
<path id="Vector_86" opacity="0.1" d="M1097 197C1097 197 1101.76 205.411 1100.89 210L1097 197Z" fill="black"/>
<path id="Vector_87" opacity="0.1" d="M1085 201C1085 201 1091.91 211.773 1090.9 213L1085 201Z" fill="black"/>
<path id="Vector_88" opacity="0.1" d="M1080.66 213C1080.66 213 1081.76 218.784 1080 219L1080.66 213Z" fill="black"/>
<path id="Vector_89" opacity="0.05" d="M1156.17 343.456C1157.89 346.862 1157.89 352.9 1158.67 355.377C1159.1 356.739 1160.05 359.093 1160.82 361C1161.07 359.761 1161.55 359.025 1162.31 359.675C1162.81 353.996 1163.69 344.193 1163.97 342.218C1164.38 339.431 1159.92 332 1159.92 332C1159.92 332 1155.56 333.393 1154.45 336.799C1153.33 340.205 1154.45 340.057 1156.17 343.456Z" fill="black"/>
<path id="Vector_90" opacity="0.1" d="M1179 270.093C1184.14 271.174 1193.71 292 1193.71 292C1193.71 292 1194.97 289.227 1196.71 285.355C1198.91 280.441 1201.86 273.744 1204 268.668L1191.44 249L1189.16 252.736C1189.16 252.736 1184.73 259.459 1184.73 260.76C1184.73 261.268 1183.87 262.811 1182.78 264.496C1181.11 267.119 1179 270.093 1179 270.093Z" fill="black"/>
<path id="Vector_91" opacity="0.1" d="M1196.54 183.164C1196.74 182.635 1196.89 182.243 1197 182L1191.12 182.535L1188 209C1190.33 201.743 1194.88 187.701 1196.54 183.164Z" fill="black"/>
<path id="Vector_92" opacity="0.1" d="M1184 264.941C1188.73 271.667 1195.37 281.098 1197.45 283.853C1197.75 284.262 1197.96 284.527 1198.05 284.615C1198.24 284.796 1198.45 284.927 1198.67 285C1200.74 280.638 1203.71 274.352 1206 269.24L1204.94 267.677L1192.92 250L1191.43 252.288C1191.43 252.288 1186.88 258.8 1186.88 260.061C1186.88 260.666 1185.45 262.86 1184 264.941Z" fill="black"/>
<path id="Vector_93" d="M1190.38 182.643L1196.69 182C1196.69 182 1198.37 188.002 1199.77 188.433C1201.17 188.864 1203 193.791 1203 193.791C1203 193.791 1208.4 195.296 1208.16 197.87C1207.92 200.443 1216.46 218.847 1216.46 218.847C1216.46 218.847 1219.27 227.673 1217.3 234.105C1215.34 240.538 1213.94 244.829 1213.52 247.183C1213.1 249.537 1208.12 259.836 1208.16 261.766C1208.2 263.696 1195.44 292 1195.44 292C1195.44 292 1186.05 271.415 1181 270.341C1181 270.341 1186.61 262.409 1186.61 261.123C1186.61 259.836 1190.92 253.191 1190.92 253.191L1196.39 244.185C1196.39 244.185 1198.21 242.899 1196.39 240.538C1194.56 238.177 1199.47 232.819 1199.47 232.819C1199.47 232.819 1199.61 228.959 1197.79 227.885C1195.96 226.811 1193.58 219.741 1193.58 219.741L1186.99 214.595L1190.38 182.643Z" fill="#464353"/>
<path id="Vector_94" opacity="0.1" d="M1214 223.908C1214 223.908 1207.13 222.33 1207 223.335C1206.88 224.339 1214 223.908 1214 223.908Z" fill="black"/>
<path id="Vector_95" opacity="0.1" d="M1208 236C1208 236 1201.73 237.333 1202.01 239.505C1202.28 241.677 1208 236 1208 236Z" fill="black"/>
<path id="Vector_96" opacity="0.1" d="M1203 200C1203 200 1196.84 212.177 1196 209.656L1203 200Z" fill="black"/>
<g id="Group" opacity="0.1">
<path id="Vector_97" opacity="0.1" d="M1165.29 100.729C1165.26 99.1759 1165.39 97.6239 1165.68 96.1333C1165.8 95.5029 1165.89 94.8604 1165.95 94.2104C1166.01 95.2965 1165.91 96.3877 1165.68 97.4152C1165.47 98.4973 1165.35 99.6076 1165.29 100.729V100.729Z" fill="black"/>
<path id="Vector_98" opacity="0.1" d="M1135.61 114.83C1135.44 112.907 1134.57 111.157 1134.49 109.189C1134.48 108.862 1134.49 108.533 1134.52 108.209C1134.68 110.196 1135.59 111.958 1135.64 113.977C1135.65 114.262 1135.64 114.548 1135.61 114.83V114.83Z" fill="black"/>
<path id="Vector_99" opacity="0.1" d="M1134.68 124.123C1134.95 124.567 1135.29 124.909 1135.66 125.124C1136.04 125.339 1136.44 125.419 1136.84 125.36C1137.64 125.228 1138.41 124.899 1139.14 124.386C1140.11 123.79 1141.13 123.104 1141.72 121.822C1142.26 120.63 1142.43 118.957 1143.27 118.272C1144.23 117.49 1145.39 118.547 1146.43 118.912C1147.68 119.361 1148.97 118.836 1150.18 118.163C1151.98 117.156 1154.5 115.304 1156.35 117.214C1157.79 118.701 1157.23 121.861 1157.6 124.111C1158.17 127.597 1160.63 129.879 1161.09 133.411C1161.29 134.968 1161.16 136.872 1161.99 137.84C1162.32 138.17 1162.68 138.389 1163.07 138.481C1164.41 138.929 1166.07 139.032 1166.88 137.353C1167.11 136.873 1167.26 136.309 1167.3 135.718C1167.41 136.736 1167.26 137.779 1166.88 138.634C1166.06 140.314 1164.4 140.211 1163.07 139.762C1162.68 139.671 1162.32 139.452 1161.99 139.122C1161.15 138.154 1161.29 136.25 1161.09 134.693C1160.63 131.167 1158.17 128.879 1157.6 125.392C1157.23 123.143 1157.79 119.983 1156.35 118.496C1154.5 116.573 1151.98 118.438 1150.18 119.444C1148.98 120.117 1147.68 120.643 1146.43 120.194C1145.36 119.816 1144.23 118.759 1143.27 119.553C1142.42 120.239 1142.26 121.912 1141.72 123.104C1141.13 124.386 1140.11 125.104 1139.14 125.668C1138.41 126.181 1137.64 126.51 1136.84 126.642C1136.44 126.701 1136.04 126.62 1135.66 126.406C1135.29 126.191 1134.95 125.849 1134.68 125.405C1134.47 124.989 1134.33 124.512 1134.25 124.006C1134.17 123.5 1134.16 122.975 1134.22 122.463C1134.27 123.071 1134.43 123.647 1134.68 124.123V124.123Z" fill="black"/>
<path id="Vector_100" opacity="0.1" d="M1168.82 119.746C1168.96 118.124 1169.86 116.926 1170.32 115.452C1170.5 114.896 1170.61 114.301 1170.65 113.689C1170.73 114.731 1170.62 115.786 1170.32 116.733C1169.87 118.163 1169.02 119.342 1168.84 120.887C1168.79 120.51 1168.79 120.126 1168.82 119.746Z" fill="black"/>
<path id="Vector_101" opacity="0.1" d="M1166.46 129.757C1166.4 129.413 1166.39 129.052 1166.43 128.701C1166.48 128.35 1166.57 128.017 1166.7 127.726C1167.18 126.899 1168.09 127.085 1168.68 126.444C1168.83 126.258 1168.96 126.028 1169.06 125.766C1169.15 125.504 1169.21 125.216 1169.23 124.918C1169.32 125.963 1169.23 127.117 1168.68 127.726C1168.12 128.334 1167.18 128.206 1166.7 129.007C1166.58 129.224 1166.5 129.482 1166.46 129.757V129.757Z" fill="black"/>
</g>
<path id="Vector_102" d="M1267.33 462.033C1267.33 462.033 1284.9 460.489 1282.83 478.398C1282.83 478.398 1283.26 481.561 1281.27 483C1281.27 483 1281.24 481.672 1279.47 482.123C1278.84 482.276 1278.2 482.319 1277.56 482.253C1276.7 482.167 1275.88 481.677 1275.22 480.856V480.856C1275.22 480.856 1270.28 477.885 1268.36 466.148C1268.36 466.148 1266.95 463.584 1267 462.929L1269.97 464.782C1269.97 464.782 1268.96 467.871 1269.76 470.478C1269.76 470.478 1269.86 464.918 1270.42 465.023C1270.54 465.054 1271.97 466.104 1271.97 466.104C1271.97 466.104 1270.22 471.522 1271.54 475.463C1271.54 475.463 1271.04 468.785 1272.51 466.494L1274.6 468.267C1274.6 468.267 1272.56 473.863 1273.95 478.435C1273.95 478.435 1273.59 471.429 1275.04 468.699L1276.93 470.843C1276.93 470.843 1275.02 476.359 1276.18 480.152C1276.18 480.152 1276.34 471.992 1277.34 471.38C1277.34 471.38 1279 473.499 1279.25 474.37C1279.25 474.37 1277.94 478.379 1278.75 480.492C1278.75 480.492 1279.25 475.056 1279.66 475.031C1279.66 475.031 1281.31 478.632 1281.48 481.097C1281.48 481.097 1281.4 477.428 1280.06 474.685C1281.01 474.95 1281.88 475.611 1282.58 476.588C1282.58 476.588 1282.33 474.043 1279.65 473.82C1279.65 473.82 1278.29 471.09 1277.92 470.923C1277.92 470.923 1280.58 470.602 1282.19 471.639C1282.19 471.639 1280.78 469.243 1277.44 470.33L1275.57 468.112C1275.57 468.112 1279.07 467.42 1280.55 468.186C1280.55 468.186 1278.86 466.061 1275.06 467.612L1273.03 465.845C1273.03 465.845 1276.01 464.906 1277.8 465.227C1277.8 465.227 1275.92 463.757 1272.44 465.351L1270.98 464.399C1270.98 464.399 1273.17 463.782 1273.81 463.677C1274.45 463.572 1274.49 463.318 1274.49 463.318C1273.1 462.985 1271.68 463.216 1270.38 463.986C1270.38 463.986 1267.28 462.311 1267.33 462.033Z" fill="#A2A4AD"/>
<path id="Vector_103" opacity="0.1" d="M1279.5 488C1272.6 488 1267 486.657 1267 485C1267 483.343 1272.6 482 1279.5 482C1286.4 482 1292 483.343 1292 485C1292 486.657 1286.4 488 1279.5 488Z" fill="#A2A4AD"/>
<path id="search" d="M103.793 750.959C103.793 743.635 101.01 737.971 95.4434 733.967C89.9746 729.865 80.3555 726.35 66.5859 723.42C52.9141 720.49 42.0254 716.975 33.9199 712.873C25.9121 708.771 19.9551 703.889 16.0488 698.225C12.2402 692.561 10.3359 685.822 10.3359 678.01C10.3359 665.021 15.8047 654.035 26.7422 645.051C37.7773 636.066 51.8398 631.574 68.9297 631.574C86.8984 631.574 101.449 636.213 112.582 645.49C123.812 654.768 129.428 666.633 129.428 681.086H102.182C102.182 673.664 99.0078 667.268 92.6602 661.896C86.4102 656.525 78.5 653.84 68.9297 653.84C59.0664 653.84 51.3516 655.988 45.7852 660.285C40.2188 664.582 37.4355 670.197 37.4355 677.131C37.4355 683.674 40.0234 688.605 45.1992 691.926C50.375 695.246 59.7012 698.42 73.1777 701.447C86.752 704.475 97.7383 708.088 106.137 712.287C114.535 716.486 120.736 721.564 124.74 727.521C128.842 733.381 130.893 740.559 130.893 749.055C130.893 763.215 125.229 774.592 113.9 783.186C102.572 791.682 87.875 795.93 69.8086 795.93C57.1133 795.93 45.8828 793.684 36.1172 789.191C26.3516 784.699 18.6855 778.449 13.1191 770.441C7.65039 762.336 4.91602 753.596 4.91602 744.221H32.0156C32.5039 753.303 36.1172 760.529 42.8555 765.9C49.6914 771.174 58.6758 773.811 69.8086 773.811C80.0625 773.811 88.2656 771.76 94.418 767.658C100.668 763.459 103.793 757.893 103.793 750.959ZM231.967 795.93C210.482 795.93 193.002 788.898 179.525 774.836C166.049 760.676 159.311 741.779 159.311 718.146V713.166C159.311 697.443 162.289 683.43 168.246 671.125C174.301 658.723 182.699 649.055 193.441 642.121C204.281 635.09 216 631.574 228.598 631.574C249.203 631.574 265.219 638.361 276.645 651.936C288.07 665.51 293.783 684.943 293.783 710.236V721.516H186.41C186.801 737.141 191.342 749.787 200.033 759.455C208.822 769.025 219.955 773.811 233.432 773.811C243.002 773.811 251.107 771.857 257.748 767.951C264.389 764.045 270.199 758.869 275.18 752.424L291.732 765.314C278.451 785.725 258.529 795.93 231.967 795.93ZM228.598 653.84C217.66 653.84 208.48 657.844 201.059 665.852C193.637 673.762 189.047 684.895 187.289 699.25H266.684V697.199C265.902 683.43 262.191 672.785 255.551 665.266C248.91 657.648 239.926 653.84 228.598 653.84ZM423.129 793C421.566 789.875 420.297 784.309 419.32 776.301C406.723 789.387 391.684 795.93 374.203 795.93C358.578 795.93 345.736 791.535 335.678 782.746C325.717 773.859 320.736 762.629 320.736 749.055C320.736 732.551 326.986 719.758 339.486 710.676C352.084 701.496 369.76 696.906 392.514 696.906H418.881V684.455C418.881 674.982 416.049 667.463 410.385 661.896C404.721 656.232 396.371 653.4 385.336 653.4C375.668 653.4 367.562 655.842 361.02 660.725C354.477 665.607 351.205 671.516 351.205 678.449H323.959C323.959 670.539 326.742 662.922 332.309 655.598C337.973 648.176 345.59 642.316 355.16 638.02C364.828 633.723 375.424 631.574 386.947 631.574C405.209 631.574 419.516 636.164 429.867 645.344C440.219 654.426 445.59 666.975 445.98 682.99V755.939C445.98 770.49 447.836 782.062 451.547 790.656V793H423.129ZM378.158 772.346C386.654 772.346 394.711 770.148 402.328 765.754C409.945 761.359 415.463 755.646 418.881 748.615V716.096H397.641C364.438 716.096 347.836 725.812 347.836 745.246C347.836 753.742 350.668 760.383 356.332 765.168C361.996 769.953 369.271 772.346 378.158 772.346ZM565.072 658.82C560.971 658.137 556.527 657.795 551.742 657.795C533.969 657.795 521.908 665.363 515.561 680.5V793H488.461V634.504H514.828L515.268 652.814C524.154 638.654 536.752 631.574 553.061 631.574C558.334 631.574 562.338 632.258 565.072 633.625V658.82ZM650.766 773.811C660.434 773.811 668.881 770.881 676.107 765.021C683.334 759.162 687.338 751.838 688.119 743.049H713.754C713.266 752.131 710.141 760.773 704.379 768.977C698.617 777.18 690.902 783.723 681.234 788.605C671.664 793.488 661.508 795.93 650.766 795.93C629.184 795.93 611.996 788.752 599.203 774.396C586.508 759.943 580.16 740.217 580.16 715.217V710.676C580.16 695.246 582.992 681.525 588.656 669.514C594.32 657.502 602.426 648.176 612.973 641.535C623.617 634.895 636.166 631.574 650.619 631.574C668.393 631.574 683.139 636.896 694.857 647.541C706.674 658.186 712.973 672.004 713.754 688.996H688.119C687.338 678.742 683.432 670.344 676.4 663.801C669.467 657.16 660.873 653.84 650.619 653.84C636.85 653.84 626.156 658.82 618.539 668.781C611.02 678.645 607.26 692.951 607.26 711.701V716.828C607.26 735.09 611.02 749.152 618.539 759.016C626.059 768.879 636.801 773.811 650.766 773.811ZM771.322 653.693C783.334 638.947 798.959 631.574 818.197 631.574C851.693 631.574 868.588 650.471 868.881 688.264V793H841.781V688.117C841.684 676.691 839.047 668.244 833.871 662.775C828.793 657.307 820.834 654.572 809.994 654.572C801.205 654.572 793.49 656.916 786.85 661.604C780.209 666.291 775.033 672.443 771.322 680.061V793H744.223V568H771.322V653.693Z" fill="url(#paint1_linear)"/>
<g id="rueda_grande">
<path id="Vector_104" d="M1081.5 163C1066.86 163 1055 151.136 1055 136.5C1055 121.864 1066.86 110 1081.5 110C1096.14 110 1108 121.864 1108 136.5C1108 151.136 1096.14 163 1081.5 163Z" fill="#464353"/>
<path id="Vector_105" d="M1081.5 156C1070.73 156 1062 147.27 1062 136.5C1062 125.73 1070.73 117 1081.5 117C1092.27 117 1101 125.73 1101 136.5C1101 147.27 1092.27 156 1081.5 156Z" fill="#A2A4AD"/>
<circle id="Ellipse 1" cx="1081" cy="126" r="3.85" fill="white" stroke="black" stroke-width="0.3"/>
<circle id="Ellipse 2" cx="1081" cy="147" r="3.85" fill="white" stroke="black" stroke-width="0.3"/>
<circle id="Ellipse 3" cx="1091" cy="136" r="3.85" fill="white" stroke="black" stroke-width="0.3"/>
<circle id="Ellipse 4" cx="1071" cy="136" r="3.85" fill="white" stroke="black" stroke-width="0.3"/>
</g>
<g id="rueda_peque">
<path id="Vector_106" d="M1030.5 158C1018.63 158 1009 148.374 1009 136.5C1009 124.626 1018.63 115 1030.5 115C1042.37 115 1052 124.626 1052 136.5C1052 148.374 1042.37 158 1030.5 158Z" fill="#464353"/>
<path id="Vector_107" d="M1030.5 153C1021.39 153 1014 145.613 1014 136.5C1014 127.387 1021.39 120 1030.5 120C1039.61 120 1047 127.387 1047 136.5C1047 145.613 1039.61 153 1030.5 153Z" fill="#A2A4AD"/>
<circle id="Ellipse 5" cx="1027.13" cy="130.03" r="2.85" transform="rotate(-26.7727 1027.13 130.03)" fill="white" stroke="black" stroke-width="0.3"/>
<circle id="Ellipse 6" cx="1033.88" cy="143.422" r="2.85" transform="rotate(-26.7727 1033.88 143.422)" fill="white" stroke="black" stroke-width="0.3"/>
<circle id="Ellipse 7" cx="1037.42" cy="132.676" r="2.85" transform="rotate(-26.7727 1037.42 132.676)" fill="white" stroke="black" stroke-width="0.3"/>
<circle id="Ellipse 8" cx="1024.03" cy="139.433" r="2.85" transform="rotate(-26.7727 1024.03 139.433)" fill="white" stroke="black" stroke-width="0.3"/>
</g>
</g>
<defs>
<linearGradient id="paint0_linear" x1="1136.44" y1="500.068" x2="1136.44" y2="86.9782" gradientUnits="userSpaceOnUse">
<stop stop-color="#808080" stop-opacity="0.25"/>
<stop offset="0.54" stop-color="#808080" stop-opacity="0.12"/>
<stop offset="1" stop-color="#808080" stop-opacity="0.1"/>
</linearGradient>
<linearGradient id="paint1_linear" x1="33.6548" y1="680.299" x2="890.376" y2="683.581" gradientUnits="userSpaceOnUse">
<stop stop-color="#DAD5D5" stop-opacity="0.4"/>
<stop offset="1" stop-color="#DAD5D5" stop-opacity="0.1"/>
</linearGradient>
</defs>
</svg>
