<svg width="714" height="525" viewBox="0 0 714 525" fill="none" xmlns="http://www.w3.org/2000/svg">
<g id="Frame 1">
<rect id="Rectangle 1" width="714" height="525" fill="white"/>
<path id="search" d="M72.3965 360.979C72.3965 357.317 71.0049 354.485 68.2217 352.483C65.4873 350.433 60.6777 348.675 53.793 347.21C46.957 345.745 41.5127 343.987 37.46 341.937C33.4561 339.886 30.4775 337.444 28.5244 334.612C26.6201 331.78 25.668 328.411 25.668 324.505C25.668 318.011 28.4023 312.518 33.8711 308.025C39.3887 303.533 46.4199 301.287 54.9648 301.287C63.9492 301.287 71.2246 303.606 76.791 308.245C82.4062 312.884 85.2139 318.816 85.2139 326.043H71.5908C71.5908 322.332 70.0039 319.134 66.8301 316.448C63.7051 313.763 59.75 312.42 54.9648 312.42C50.0332 312.42 46.1758 313.494 43.3926 315.643C40.6094 317.791 39.2178 320.599 39.2178 324.065C39.2178 327.337 40.5117 329.803 43.0996 331.463C45.6875 333.123 50.3506 334.71 57.0889 336.224C63.876 337.737 69.3691 339.544 73.5684 341.644C77.7676 343.743 80.8682 346.282 82.8701 349.261C84.9209 352.19 85.9463 355.779 85.9463 360.027C85.9463 367.107 83.1143 372.796 77.4502 377.093C71.7861 381.341 64.4375 383.465 55.4043 383.465C49.0566 383.465 43.4414 382.342 38.5586 380.096C33.6758 377.85 29.8428 374.725 27.0596 370.721C24.3252 366.668 22.958 362.298 22.958 357.61H36.5078C36.752 362.151 38.5586 365.765 41.9277 368.45C45.3457 371.087 49.8379 372.405 55.4043 372.405C60.5312 372.405 64.6328 371.38 67.709 369.329C70.834 367.229 72.3965 364.446 72.3965 360.979ZM136.483 383.465C125.741 383.465 117.001 379.949 110.263 372.918C103.524 365.838 100.155 356.39 100.155 344.573V342.083C100.155 334.222 101.645 327.215 104.623 321.062C107.65 314.861 111.85 310.027 117.221 306.561C122.641 303.045 128.5 301.287 134.799 301.287C145.102 301.287 153.109 304.681 158.822 311.468C164.535 318.255 167.392 327.972 167.392 340.618V346.258H113.705C113.9 354.07 116.171 360.394 120.517 365.228C124.911 370.013 130.478 372.405 137.216 372.405C142.001 372.405 146.054 371.429 149.374 369.476C152.694 367.522 155.6 364.935 158.09 361.712L166.366 368.157C159.726 378.362 149.765 383.465 136.483 383.465ZM134.799 312.42C129.33 312.42 124.74 314.422 121.029 318.426C117.318 322.381 115.023 327.947 114.145 335.125H153.842V334.1C153.451 327.215 151.596 321.893 148.275 318.133C144.955 314.324 140.463 312.42 134.799 312.42ZM232.064 382C231.283 380.438 230.648 377.654 230.16 373.65C223.861 380.193 216.342 383.465 207.602 383.465C199.789 383.465 193.368 381.268 188.339 376.873C183.358 372.43 180.868 366.814 180.868 360.027C180.868 351.775 183.993 345.379 190.243 340.838C196.542 336.248 205.38 333.953 216.757 333.953H229.94V327.728C229.94 322.991 228.524 319.231 225.692 316.448C222.86 313.616 218.686 312.2 213.168 312.2C208.334 312.2 204.281 313.421 201.01 315.862C197.738 318.304 196.103 321.258 196.103 324.725H182.479C182.479 320.77 183.871 316.961 186.654 313.299C189.486 309.588 193.295 306.658 198.08 304.51C202.914 302.361 208.212 301.287 213.974 301.287C223.104 301.287 230.258 303.582 235.434 308.172C240.609 312.713 243.295 318.987 243.49 326.995V363.47C243.49 370.745 244.418 376.531 246.273 380.828V382H232.064ZM209.579 371.673C213.827 371.673 217.855 370.574 221.664 368.377C225.473 366.18 228.231 363.323 229.94 359.808V343.548H219.32C202.719 343.548 194.418 348.406 194.418 358.123C194.418 362.371 195.834 365.691 198.666 368.084C201.498 370.477 205.136 371.673 209.579 371.673ZM303.036 314.91C300.985 314.568 298.764 314.397 296.371 314.397C287.484 314.397 281.454 318.182 278.28 325.75V382H264.73V302.752H277.914L278.134 311.907C282.577 304.827 288.876 301.287 297.03 301.287C299.667 301.287 301.669 301.629 303.036 302.312V314.91ZM345.883 372.405C350.717 372.405 354.94 370.94 358.554 368.011C362.167 365.081 364.169 361.419 364.56 357.024H377.377C377.133 361.565 375.57 365.887 372.689 369.988C369.809 374.09 365.951 377.361 361.117 379.803C356.332 382.244 351.254 383.465 345.883 383.465C335.092 383.465 326.498 379.876 320.102 372.698C313.754 365.472 310.58 355.608 310.58 343.108V340.838C310.58 333.123 311.996 326.263 314.828 320.257C317.66 314.251 321.713 309.588 326.986 306.268C332.309 302.947 338.583 301.287 345.81 301.287C354.696 301.287 362.069 303.948 367.929 309.271C373.837 314.593 376.986 321.502 377.377 329.998H364.56C364.169 324.871 362.216 320.672 358.7 317.4C355.233 314.08 350.937 312.42 345.81 312.42C338.925 312.42 333.578 314.91 329.77 319.891C326.01 324.822 324.13 331.976 324.13 341.351V343.914C324.13 353.045 326.01 360.076 329.77 365.008C333.529 369.939 338.9 372.405 345.883 372.405ZM406.161 312.347C412.167 304.974 419.979 301.287 429.599 301.287C446.347 301.287 454.794 310.735 454.94 329.632V382H441.391V329.559C441.342 323.846 440.023 319.622 437.436 316.888C434.896 314.153 430.917 312.786 425.497 312.786C421.103 312.786 417.245 313.958 413.925 316.302C410.604 318.646 408.017 321.722 406.161 325.53V382H392.611V269.5H406.161V312.347Z" fill="url(#paint0_linear)"/>
</g>
<defs>
<linearGradient id="paint0_linear" x1="38.1601" y1="295.475" x2="483.235" y2="298.282" gradientUnits="userSpaceOnUse">
<stop stop-color="#DAD5D5" stop-opacity="0.4"/>
<stop offset="1" stop-color="#DAD5D5" stop-opacity="0.1"/>
</linearGradient>
</defs>
</svg>
