<svg width="602" height="1028" viewBox="0 0 602 1028" fill="none" xmlns="http://www.w3.org/2000/svg">
<g id="Frame 1">
<rect id="Rectangle 1" width="602" height="1028" fill="white"/>
<path id="Vector" opacity="0.1" d="M384.223 371.419C384.406 371.675 384.594 371.922 384.784 372.165C385.485 373.063 386.216 373.87 386.973 374.58C390.949 378.373 395.847 380.224 400.621 381.482C411.324 384.309 422.254 384.856 433.137 385.394C462.54 386.857 492.021 388.312 521.35 384.947C532.937 383.618 544.783 381.381 555.285 374.574C556.789 373.599 558.265 372.525 559.712 371.351C562.638 368.969 565.448 366.074 567.786 362.625C569.989 359.383 571.762 355.655 572.827 351.421C575.047 342.597 573.872 332.687 571.338 324.041C570.279 320.533 569.09 317.175 567.779 313.992C565.826 309.123 563.672 304.406 561.702 299.544C554.699 282.226 550.129 260.354 556.594 242.616C558.458 237.52 561.138 233.046 562.651 227.726C564.585 220.919 564.435 213.362 563.819 206.007C563.741 205.08 563.65 204.159 563.567 203.238C562.511 192.356 560.545 180.627 554.458 173.833C548.136 166.772 539.161 167.129 531.311 169.654C519.107 173.583 507.849 181.788 496.481 189.198C485.112 196.609 473.205 203.378 460.703 204.11C449.665 204.759 436.788 199.938 429.463 187.428C422.344 175.278 408.97 174.354 399.326 181.694C392.715 186.731 387.774 195.805 385.691 206.007C385.27 208.049 384.966 210.173 384.784 212.341C384.615 214.315 384.558 216.318 384.615 218.316C384.644 219.288 384.7 220.277 384.784 221.233C386.395 241.374 397.99 257.259 405.038 275.25C408.482 284.038 410.914 294.594 408.546 304.069C404.934 318.508 392.373 323.639 384.784 334.389C383.367 336.324 382.109 338.656 381.055 341.307C377.386 350.877 378.743 363.792 384.223 371.419Z" fill="#A2A4AD"/>
<path id="Vector_2" opacity="0.1" d="M482.5 382C457.371 382 437 380.433 437 378.5C437 376.567 457.371 375 482.5 375C507.629 375 528 376.567 528 378.5C528 380.433 507.629 382 482.5 382Z" fill="#A2A4AD"/>
<g id="flowers">
<path id="Vector_3" d="M446.431 376.644C446.431 376.644 436.591 352.864 437.353 329.225C437.674 319.301 436.393 309.423 433.531 301.114C432.169 297.177 430.621 293.488 428.906 290.092" stroke="#535461" stroke-width="2" stroke-miterlimit="10"/>
<path id="Vector_4" d="M429.342 275.187C430.037 278.495 428.919 290.484 428.919 290.484C428.919 290.484 423.764 283.302 423.068 279.997C422.902 279.21 422.82 278.37 422.824 277.522C422.829 276.675 422.922 275.838 423.096 275.058C423.27 274.279 423.523 273.573 423.841 272.98C424.158 272.387 424.534 271.92 424.946 271.604C425.358 271.288 425.799 271.13 426.243 271.139C426.687 271.148 427.126 271.324 427.535 271.657C427.943 271.99 428.313 272.473 428.624 273.078C428.935 273.684 429.18 274.401 429.345 275.187H429.342Z" fill="#A2A4AD"/>
<path id="Vector_5" d="M438.383 289.523C438.025 293.019 433.67 301.923 433.67 301.923C433.67 301.923 431.388 290.549 431.746 287.053C431.927 285.391 432.443 283.932 433.184 282.992C433.925 282.052 434.83 281.707 435.704 282.032C436.577 282.357 437.348 283.326 437.849 284.728C438.351 286.13 438.543 287.853 438.383 289.523V289.523Z" fill="#A2A4AD"/>
<path id="Vector_6" d="M444.743 320.985C443.51 323.658 437.395 327.134 437.395 327.134C437.395 327.134 438.435 315.119 439.669 312.446C439.962 311.81 440.318 311.291 440.717 310.918C441.115 310.545 441.548 310.325 441.991 310.271C442.434 310.217 442.879 310.33 443.299 310.604C443.719 310.878 444.106 311.307 444.44 311.866C444.773 312.426 445.045 313.105 445.241 313.866C445.436 314.626 445.551 315.452 445.579 316.297C445.608 317.143 445.548 317.99 445.405 318.792C445.261 319.593 445.037 320.333 444.743 320.968V320.985Z" fill="#A2A4AD"/>
<path id="Vector_7" d="M446.749 346.856C445.77 349.889 440.051 355.304 440.051 355.304C440.051 355.304 440.012 343.124 440.99 340.091C441.222 339.363 441.526 338.73 441.886 338.227C442.246 337.724 442.655 337.363 443.088 337.163C443.522 336.963 443.972 336.929 444.413 337.062C444.853 337.195 445.276 337.494 445.655 337.94C446.035 338.387 446.365 338.972 446.626 339.662C446.887 340.353 447.073 341.135 447.175 341.964C447.277 342.793 447.291 343.652 447.218 344.491C447.145 345.331 446.985 346.135 446.749 346.856Z" fill="#A2A4AD"/>
<path id="Vector_8" d="M427.209 307.613C428.938 308.963 435.229 306.911 435.229 306.911C435.229 306.911 431.496 297.026 429.773 295.676C428.946 295.058 428.025 295.085 427.209 295.751C426.393 296.417 425.747 297.669 425.41 299.236C425.073 300.804 425.074 302.561 425.41 304.128C425.747 305.695 426.393 306.947 427.209 307.613V307.613Z" fill="#A2A4AD"/>
<path id="Vector_9" d="M429.754 337.813C431.62 338.117 437.297 332.566 437.297 332.566C437.297 332.566 432.189 325.263 430.329 324.959C429.883 324.872 429.432 324.956 429.002 325.204C428.573 325.453 428.174 325.863 427.828 326.409C427.483 326.955 427.197 327.627 426.989 328.386C426.781 329.145 426.654 329.975 426.616 330.828C426.578 331.681 426.629 332.54 426.767 333.355C426.905 334.17 427.126 334.925 427.418 335.575C427.71 336.225 428.067 336.758 428.468 337.142C428.869 337.526 429.306 337.754 429.754 337.813V337.813Z" fill="#A2A4AD"/>
<path id="Vector_10" d="M434.348 366.52C436.155 367.416 442.246 363.778 442.246 363.778C442.246 363.778 437.859 354.935 436.052 354.035C435.193 353.658 434.292 353.935 433.539 354.806C432.786 355.678 432.241 357.076 432.02 358.703C431.798 360.329 431.919 362.056 432.355 363.516C432.791 364.976 433.509 366.054 434.355 366.52H434.348Z" fill="#A2A4AD"/>
<path id="Vector_11" opacity="0.25" d="M429.342 275.187C430.037 278.495 428.919 290.484 428.919 290.484C428.919 290.484 423.764 283.302 423.068 279.997C422.902 279.21 422.82 278.37 422.824 277.522C422.829 276.675 422.922 275.838 423.096 275.058C423.27 274.279 423.523 273.573 423.841 272.98C424.158 272.387 424.534 271.92 424.946 271.604C425.358 271.288 425.799 271.13 426.243 271.139C426.687 271.148 427.126 271.324 427.535 271.657C427.943 271.99 428.313 272.473 428.624 273.078C428.935 273.684 429.18 274.401 429.345 275.187H429.342Z" fill="black"/>
<path id="Vector_12" opacity="0.25" d="M438.383 289.523C438.025 293.019 433.67 301.923 433.67 301.923C433.67 301.923 431.388 290.549 431.746 287.053C431.927 285.391 432.443 283.932 433.184 282.992C433.925 282.052 434.83 281.707 435.704 282.032C436.577 282.357 437.348 283.326 437.849 284.728C438.351 286.13 438.543 287.853 438.383 289.523V289.523Z" fill="black"/>
<path id="Vector_13" opacity="0.25" d="M444.743 320.985C443.51 323.658 437.395 327.134 437.395 327.134C437.395 327.134 438.435 315.119 439.669 312.446C439.962 311.81 440.318 311.291 440.717 310.918C441.115 310.545 441.548 310.325 441.991 310.271C442.434 310.217 442.879 310.33 443.299 310.604C443.719 310.878 444.106 311.307 444.44 311.866C444.773 312.426 445.045 313.105 445.241 313.866C445.436 314.626 445.551 315.452 445.579 316.297C445.608 317.143 445.548 317.99 445.405 318.792C445.261 319.593 445.037 320.333 444.743 320.968V320.985Z" fill="black"/>
<path id="Vector_14" opacity="0.25" d="M446.749 346.856C445.77 349.889 440.051 355.304 440.051 355.304C440.051 355.304 440.012 343.124 440.99 340.091C441.222 339.363 441.526 338.73 441.886 338.227C442.246 337.724 442.655 337.363 443.088 337.163C443.522 336.963 443.972 336.929 444.413 337.062C444.853 337.195 445.276 337.494 445.655 337.94C446.035 338.387 446.365 338.972 446.626 339.662C446.887 340.353 447.073 341.135 447.175 341.964C447.277 342.793 447.291 343.652 447.218 344.491C447.145 345.331 446.985 346.135 446.749 346.856Z" fill="black"/>
<path id="Vector_15" opacity="0.25" d="M427.209 307.613C428.938 308.963 435.229 306.911 435.229 306.911C435.229 306.911 431.496 297.026 429.773 295.676C428.946 295.058 428.025 295.085 427.209 295.751C426.393 296.417 425.747 297.669 425.41 299.236C425.073 300.804 425.074 302.561 425.41 304.128C425.747 305.695 426.393 306.947 427.209 307.613V307.613Z" fill="black"/>
<path id="Vector_16" opacity="0.25" d="M429.754 337.813C431.62 338.117 437.297 332.566 437.297 332.566C437.297 332.566 432.189 325.263 430.329 324.959C429.883 324.872 429.432 324.956 429.002 325.204C428.573 325.453 428.174 325.863 427.828 326.409C427.483 326.955 427.197 327.627 426.989 328.386C426.781 329.145 426.654 329.975 426.616 330.828C426.578 331.681 426.629 332.54 426.767 333.355C426.905 334.17 427.126 334.925 427.418 335.575C427.71 336.225 428.067 336.758 428.468 337.142C428.869 337.526 429.306 337.754 429.754 337.813V337.813Z" fill="black"/>
<path id="Vector_17" opacity="0.25" d="M434.348 366.52C436.155 367.416 442.246 363.778 442.246 363.778C442.246 363.778 437.859 354.935 436.052 354.035C435.193 353.658 434.292 353.935 433.539 354.806C432.786 355.678 432.241 357.076 432.02 358.703C431.798 360.329 431.919 362.056 432.355 363.516C432.791 364.976 433.509 366.054 434.355 366.52H434.348Z" fill="black"/>
<path id="Vector_18" d="M446.346 375.651C446.346 375.651 432.299 361.522 427.976 339.321C426.161 329.999 422.886 321.959 418.511 316.576C416.429 314.03 414.23 311.853 411.94 310.073" stroke="#535461" stroke-width="2" stroke-miterlimit="10"/>
<path id="Vector_19" d="M409.175 296.106C410.512 298.589 412.037 310.416 412.037 310.416C412.037 310.416 405.799 307.827 404.46 305.354C403.831 304.155 403.475 302.532 403.469 300.837C403.463 299.141 403.807 297.509 404.427 296.293C405.046 295.077 405.892 294.376 406.781 294.341C407.669 294.306 408.529 294.94 409.175 296.106V296.106Z" fill="#A2A4AD"/>
<path id="Vector_20" d="M420.484 302.227C420.9 305.7 418.809 317.207 418.809 317.207C418.809 317.207 414.308 308.575 413.889 305.101C413.78 304.269 413.759 303.403 413.828 302.555C413.896 301.707 414.053 300.894 414.288 300.163C414.524 299.431 414.833 298.797 415.198 298.297C415.564 297.796 415.978 297.44 416.416 297.249C416.855 297.058 417.309 297.036 417.752 297.183C418.195 297.331 418.618 297.646 418.997 298.109C419.375 298.573 419.701 299.176 419.956 299.883C420.211 300.59 420.389 301.387 420.481 302.227H420.484Z" fill="#A2A4AD"/>
<path id="Vector_21" d="M432.978 326.073C432.418 329.471 427.569 337.401 427.569 337.401C427.569 337.401 425.967 325.613 426.527 322.214C426.653 321.389 426.864 320.62 427.148 319.953C427.432 319.285 427.783 318.733 428.18 318.328C428.577 317.922 429.013 317.673 429.461 317.593C429.91 317.514 430.362 317.606 430.792 317.865C431.222 318.124 431.62 318.544 431.963 319.101C432.306 319.657 432.588 320.339 432.791 321.106C432.994 321.873 433.115 322.71 433.147 323.567C433.178 324.424 433.119 325.285 432.974 326.099L432.978 326.073Z" fill="#A2A4AD"/>
<path id="Vector_22" d="M440.31 348.177C440.059 351.705 435.982 361.075 435.982 361.075C435.982 361.075 433.359 349.973 433.607 346.442C433.667 345.602 433.812 344.794 434.036 344.062C434.26 343.329 434.557 342.689 434.91 342.176C435.263 341.663 435.666 341.287 436.096 341.071C436.525 340.855 436.972 340.803 437.412 340.917C437.852 341.031 438.276 341.309 438.66 341.735C439.044 342.162 439.38 342.728 439.649 343.402C439.917 344.077 440.114 344.845 440.227 345.664C440.341 346.484 440.368 347.337 440.308 348.177H440.31Z" fill="#A2A4AD"/>
<path id="Vector_23" d="M414.12 327.397C415.986 327.296 421.303 320.554 421.303 320.554C421.303 320.554 415.795 314.404 413.929 314.501C413.041 314.573 412.204 315.309 411.598 316.549C410.992 317.789 410.667 319.435 410.692 321.129C410.717 322.824 411.091 324.431 411.733 325.604C412.374 326.777 413.232 327.421 414.12 327.397V327.397Z" fill="#A2A4AD"/>
<path id="Vector_24" d="M422.861 353.039C424.625 351.877 428.641 342.412 428.641 342.412C428.641 342.412 422.422 339.684 420.656 340.846C419.827 341.431 419.151 342.612 418.773 344.136C418.395 345.66 418.345 347.406 418.633 349C418.922 350.593 419.525 351.908 420.316 352.663C421.106 353.418 422.019 353.553 422.861 353.039V353.039Z" fill="#A2A4AD"/>
<path id="Vector_25" d="M433.147 375.732C434.99 375.155 439.788 367.122 439.788 367.122C439.788 367.122 433.897 362.425 432.055 363.001C431.183 363.304 430.408 364.248 429.897 365.63C429.386 367.012 429.18 368.722 429.323 370.39C429.466 372.059 429.947 373.554 430.663 374.553C431.378 375.552 432.27 375.975 433.147 375.732V375.732Z" fill="#A2A4AD"/>
</g>
<path id="Vector_26" d="M445 378H446.519L457.626 268.765L459.051 378H460.663L462.468 268.947L473.291 378H475L467.643 265.725L467.404 262.076L452.973 259L452.524 265.725L445 378Z" fill="#464353"/>
<path id="Vector_27" d="M475 238H485V249H475V238Z" fill="#464353"/>
<path id="Vector_28" d="M431 232.359L426.521 228H425.54C425.397 228 425.259 228.137 425.158 228.381C425.057 228.625 425 228.956 425 229.301V259.699C425 260.044 425.057 260.375 425.158 260.619C425.259 260.863 425.397 261 425.54 261H426.521L431 256.505V232.359Z" fill="#464353"/>
<path id="Vector_29" d="M431 234H443V255H431V234Z" fill="#464353"/>
<path id="Vector_30" d="M455 195H462V198H455V195Z" fill="#514E7F"/>
<path id="Vector_31" d="M450 199H471V227H450V199Z" fill="#514E7F"/>
<path id="Vector_32" opacity="0.1" d="M450 223H471V227H450V223Z" fill="black"/>
<path id="Vector_33" opacity="0.1" d="M475 238H478V249H475V238Z" fill="black"/>
<path id="Vector_34" opacity="0.1" d="M453 266H467L466.778 262.201L453.415 259L453 266Z" fill="black"/>
<path id="Vector_35" d="M444.801 224H476.199C477.194 224 478 225.571 478 227.508V262.492C478 264.429 477.194 266 476.199 266H444.801C443.806 266 443 264.429 443 262.492V227.508C443 225.571 443.806 224 444.801 224Z" fill="#514E7F"/>
<path id="Vector_36" d="M431.216 233H431V257H431.216C431.69 257 432.143 256.819 432.478 256.497C432.812 256.175 433 255.739 433 255.284V234.716C433 234.261 432.812 233.825 432.478 233.503C432.143 233.181 431.69 233 431.216 233Z" fill="#514E7F"/>
<path id="Vector_37" d="M426 228H425.389C425.286 228 425.187 228.15 425.114 228.418C425.041 228.686 425 229.049 425 229.427V259.573C425 259.951 425.041 260.314 425.114 260.582C425.187 260.85 425.286 261 425.389 261H426V228Z" fill="#514E7F"/>
<path id="Vector_38" opacity="0.1" d="M483 238H485V249H483V238Z" fill="black"/>
<path id="Vector_39" d="M484.77 234H485.23C485.655 234 486 235.083 486 236.419V250.581C486 251.917 485.655 253 485.23 253H484.77C484.345 253 484 251.917 484 250.581V236.419C484 235.083 484.345 234 484.77 234Z" fill="#514E7F"/>
<path id="Vector_40" d="M452 232C451.448 232 451 231.105 451 230C451 228.895 451.448 228 452 228C452.552 228 453 228.895 453 230C453 231.105 452.552 232 452 232Z" fill="#A2A4AD"/>
<path id="Vector_41" opacity="0.5" d="M449.5 232C449.224 232 449 231.105 449 230C449 228.895 449.224 228 449.5 228C449.776 228 450 228.895 450 230C450 231.105 449.776 232 449.5 232Z" fill="#A2A4AD"/>
<path id="Vector_42" d="M462.443 236.307L462.512 236.045C462.086 236.317 461.677 236.679 461.292 237.124C461.46 234.317 467.062 226.436 468.071 226.436C469.079 226.436 470.201 223.09 470.201 223.09C470.201 223.09 473.114 222.228 473.562 221.314C474.011 220.399 477.037 220.932 477.765 221.255C478.493 221.578 479.614 220.393 479.614 220.393C479.614 220.393 480.231 218.455 481.014 218.455C481.797 218.455 482.636 216.298 482.636 216.298C482.636 216.298 483.367 215.006 484.04 214.786C484.712 214.566 485.552 213.171 485.946 212.089C486.339 211.007 488.299 210.474 489.418 210.797C490.538 211.12 493.565 210.358 493.565 210.358C492.333 209.279 492.036 206.689 492.036 206.689C493.138 206.579 496.036 201.902 496.036 201.902C496.036 201.902 495.917 203.414 495.779 205.523L495.966 205.061L495.991 205.1C496.05 203.595 496.058 202.085 496.016 200.578C496.016 200.462 496.006 200.345 496.003 200.226C495.285 199.018 494.753 197.456 494.464 195.709C494.174 193.962 494.139 192.096 494.362 190.313C494.392 190.068 494.428 189.829 494.468 189.593C494.253 189.764 494.027 189.873 493.796 189.916H493.676C493.537 189.918 493.399 189.863 493.272 189.755C493.145 189.647 493.031 189.488 492.938 189.289V189.289C492.907 189.213 492.879 189.131 492.856 189.044C492.85 189.027 492.845 189.01 492.841 188.992C492.821 188.913 492.804 188.831 492.79 188.747C492.786 188.717 492.782 188.687 492.779 188.656C492.77 188.59 492.763 188.523 492.758 188.456C492.758 188.401 492.758 188.343 492.758 188.285C492.758 188.227 492.758 188.201 492.758 188.159C492.765 187.662 492.822 187.173 492.926 186.718C493.103 185.885 493.357 185.062 493.338 184.16C493.338 184.086 493.33 184.015 493.325 183.944C493.278 183.237 493.084 182.581 492.969 181.899V181.87C492.952 181.77 492.938 181.67 492.926 181.57C492.921 181.54 492.917 181.51 492.913 181.48C492.901 181.361 492.892 181.242 492.888 181.121C492.888 181.121 492.888 181.105 492.888 181.095C492.844 179.745 493.411 178.566 494.053 178.02C494.628 177.529 495.285 177.397 495.811 176.728C496.411 175.969 496.74 174.655 497.184 173.566C497.83 171.984 498.84 170.802 499.874 171.028C500.511 171.167 501.089 171.809 501.723 172.058C502.686 172.442 503.704 171.884 504.663 172.313C504.895 172.388 505.107 172.616 505.261 172.959C505.325 173.132 505.367 173.333 505.382 173.544V173.544C505.396 173.739 505.396 173.937 505.382 174.132V174.148C505.371 174.334 505.354 174.519 505.33 174.7L505.315 174.813C505.315 174.852 505.306 174.887 505.301 174.926C505.296 174.965 505.28 175.078 505.269 175.152C505.251 175.278 505.236 175.404 505.219 175.533V175.579C505.204 175.711 505.189 175.844 505.177 175.979C505.15 176.259 505.132 176.541 505.123 176.825V176.825C505.084 177.625 505.173 178.428 505.38 179.125C505.801 180.417 506.693 180.989 507.081 182.336C507.173 182.661 507.23 183.017 507.25 183.385C507.257 183.507 507.259 183.63 507.258 183.753V183.802C507.258 183.908 507.258 184.015 507.243 184.125C507.244 184.151 507.244 184.177 507.243 184.202C507.234 184.298 507.223 184.393 507.209 184.487C507.209 184.519 507.201 184.548 507.196 184.577C507.177 184.688 507.155 184.795 507.129 184.9V184.9C506.949 185.62 506.609 186.215 506.539 186.996C506.539 187.019 506.539 187.041 506.53 187.067C506.491 187.655 506.618 188.23 506.683 188.808C506.692 188.879 506.698 188.95 506.703 189.021V189.021C506.703 189.044 506.703 189.067 506.703 189.089C506.703 189.112 506.703 189.186 506.703 189.238C506.703 189.289 506.703 189.293 506.703 189.322C506.703 189.351 506.703 189.409 506.703 189.451C506.704 189.481 506.704 189.511 506.703 189.541C506.703 189.583 506.703 189.625 506.703 189.664C506.703 189.703 506.703 189.722 506.703 189.751C506.703 189.78 506.693 189.832 506.686 189.871L506.675 189.952C506.667 189.99 506.658 190.028 506.648 190.065L506.629 190.136C506.617 190.175 506.604 190.213 506.589 190.249C506.583 190.267 506.576 190.284 506.569 190.3C506.546 190.352 506.52 190.399 506.491 190.439C506.259 190.762 505.898 190.678 505.708 191.085C505.687 191.135 505.669 191.189 505.654 191.247L505.644 191.285C505.63 191.342 505.62 191.402 505.612 191.463V191.463C505.585 191.706 505.585 191.957 505.612 192.2C505.68 192.846 505.822 193.433 505.898 194.066C505.913 194.196 505.923 194.328 505.932 194.46C505.932 194.522 505.932 194.58 505.94 194.638V194.677C505.94 194.732 505.94 194.79 505.94 194.845C505.94 194.9 505.94 194.874 505.94 194.89C505.94 194.971 505.94 195.055 505.93 195.135C505.92 195.216 505.93 195.213 505.92 195.249L505.91 195.342C505.91 195.384 505.898 195.426 505.891 195.468L505.876 195.549C505.868 195.594 505.856 195.639 505.846 195.685C505.841 195.706 505.835 195.726 505.829 195.746C505.812 195.812 505.792 195.875 505.769 195.933C505.565 196.463 505.231 196.641 504.878 196.644C504.678 196.642 504.478 196.598 504.283 196.515C504.239 196.712 504.194 196.909 504.145 197.099C503.901 198.042 503.582 198.905 503.199 199.657C503.199 199.757 503.209 199.854 503.215 199.958C503.254 200.694 503.301 201.485 503.355 202.283C503.79 201.899 504.126 201.75 504.259 202.028C504.822 203.217 504.259 207.319 504.259 207.319C504.259 207.319 507.007 207.319 507.68 208.504C508.352 209.689 509.584 208.504 509.584 208.504C509.584 208.504 512.106 209.047 511.938 210.019C511.77 210.991 513.282 210.019 513.282 210.019C513.282 210.019 514.348 210.235 514.291 211.634C514.234 213.032 515.916 213.681 515.693 214.654C515.469 215.626 516.701 216.268 516.701 216.268C516.701 216.268 517.933 216.162 517.485 217.56C517.485 217.56 518.157 220.584 518.717 220.79C519.276 220.997 520.006 223.487 520.006 223.487C520.006 223.487 522.164 224.243 522.067 225.538C521.969 226.833 525.385 236.1 525.385 236.1C525.385 236.1 526.506 240.541 525.721 243.78C524.936 247.02 524.376 249.178 524.208 250.363C524.04 251.548 522.003 256.768 522.02 257.74C522.02 258.044 521.515 259.678 520.828 261.751L521.03 262.152L521.472 263.027C521.472 263.027 522.874 269.72 521.193 270.043C519.772 270.314 518.752 270.511 518.234 270.24C518.15 270.202 518.071 270.135 517.999 270.043L517.979 270.013C517.367 271.748 516.933 272.959 516.933 272.959C516.933 272.959 516.873 272.788 516.765 272.494L516.597 272.956C516.597 272.956 516.463 272.588 516.234 271.987C516.308 274.923 516.318 277.817 516.318 277.817C516.318 277.817 515.589 277.6 515.925 284.076C516.261 290.552 513.908 295.839 513.908 295.839V305.448C513.908 305.448 513.908 305.691 513.884 306.094C513.822 307.473 513.617 310.726 513.012 312.877C512.227 315.681 513.012 323.022 513.012 323.022C513.012 323.022 513.064 329.01 512.876 336.478C512.876 336.681 512.864 336.891 512.859 337.098C516.258 342.556 519.903 349.791 519.903 349.791C519.725 349.887 519.555 350.034 519.399 350.227L519.603 350.728L520.529 352.921L521.245 354.62L520.11 361.335L518.871 360.404C518.871 360.404 518.199 362.643 518.34 364.161C518.362 364.435 518.42 364.694 518.508 364.913C518.551 365.024 518.581 365.15 518.596 365.285C518.92 367.717 517.567 378.204 515.42 378.66C515.42 378.66 514.693 379.122 514.459 377.862C514.346 377.255 514.348 376.247 514.6 374.609C514.6 374.609 515.735 371.98 515 369.148C514.57 367.491 513.859 365.272 513.345 363.705L513.133 363.059C512.67 364.18 512.386 364.9 512.386 364.9L510.736 361.49C510.7 361.635 510.665 361.777 510.628 361.913C510.505 362.388 510.362 362.844 510.201 363.276L509.082 371.806L508.63 371.612C508.64 371.819 508.646 372.038 508.653 372.258C508.69 373.789 508.653 375.775 508.285 377.193C508.009 378.279 507.544 379.034 506.784 378.999C504.179 378.876 503.422 376.166 503.422 376.166V369.383L502.526 368.999C502.526 368.999 502.592 354.097 502.822 345.786C502.822 345.602 502.832 345.424 502.837 345.25C502.837 345.224 502.837 345.198 502.837 345.176L497.083 333.287L496.641 332.947C492.943 330.141 492.886 322.909 492.886 322.909C492.886 322.909 492.886 318.917 492.439 315.571C491.992 312.225 492.382 294.845 493.222 290.53C494.063 286.214 494.343 281.35 494.343 281.35C494.343 281.35 493.503 279.089 494.343 277.206C494.581 276.643 494.779 276.022 494.932 275.359L493.838 275.013L493.207 274.813L492.871 274.703C493.039 277.558 493.068 279.751 492.669 280.275C491.436 281.89 487.29 276.496 487.29 276.496C488.803 276.496 489.644 254.801 489.336 254.261C489.028 253.722 488.57 242.85 488.971 240.912C489.373 238.974 487.561 230.322 487.561 230.322L487.282 229.527C487.282 229.527 480.669 235.073 479.941 236.135C479.214 237.198 476.916 233.551 476.524 234.963C476.133 236.374 473.667 238.477 473.667 238.477C473.667 238.477 470.024 237.77 469.632 239.498C469.241 241.226 466.886 245.273 466.886 245.273C466.885 244.324 466.855 243.376 466.797 242.434C466.748 242.656 466.701 242.883 466.65 243.112C465.534 248.186 463.677 254.61 461.956 251.154C460.006 247.227 461.49 239.966 462.443 236.307ZM512.281 259.239V259.3L512.294 259.274L512.281 259.239ZM513.585 234.343L514.298 248.784L515.698 251.571L515.866 251.913L517.313 248.887C517.313 248.887 518.043 248.241 517.313 247.052C516.584 245.864 518.545 243.177 518.545 243.177C518.545 243.177 518.602 241.239 517.873 240.696C517.143 240.153 516.192 236.594 516.192 236.594L513.558 234.01L513.585 234.343ZM504.212 308.255C504.161 308.164 504.105 308.085 504.044 308.019C503.73 307.677 503.528 308.052 503.424 308.71C503.286 309.815 503.328 310.973 503.543 312.031C503.935 313.759 502.982 320.667 502.982 320.667C502.982 320.667 504.215 321.743 504.439 323.797C504.472 324.05 504.529 324.288 504.607 324.501C504.622 324.32 504.636 324.146 504.649 323.978C504.758 322.686 504.817 321.853 504.817 321.853C505.018 320.191 505.056 318.471 504.93 316.782C504.752 314.705 504.392 310.487 504.258 308.888C504.224 308.501 504.205 308.268 504.204 308.242L504.212 308.255Z" fill="url(#paint0_linear)"/>
<path id="Vector_43" d="M495.752 203.462L495.293 203L494 207.119L494.497 208H496C496 208 495.947 205.756 495.911 205.676C495.875 205.596 495.752 203.462 495.752 203.462Z" fill="#464353"/>
<path id="Vector_44" d="M503 369V377.341C503 377.341 503.866 379.88 506.848 379.995C507.21 380.029 507.57 379.884 507.878 379.582C508.186 379.279 508.426 378.833 508.566 378.306C508.982 376.977 509.03 375.115 508.988 373.68C508.966 372.962 508.918 372.247 508.843 371.539L503 369Z" fill="#3F3D56"/>
<path id="Vector_45" opacity="0.1" d="M503 369V371.758L509 374C508.979 373.233 508.93 372.469 508.855 371.712L503 369Z" fill="black"/>
<path id="Vector_46" d="M502 370.173L508.917 373L510.098 364.411C510.267 363.975 510.418 363.516 510.549 363.038C510.625 362.764 510.699 362.474 510.77 362.17C512.058 356.754 512.631 346.984 512.876 338.672C512.888 338.251 512.9 337.834 512.911 337.423C513.11 329.903 513.055 323.87 513.055 323.87C513.055 323.87 512.226 316.478 513.055 313.654C513.693 311.475 513.91 308.201 513.975 306.806C513.993 306.391 514 306.153 514 306.153L513.872 305.537L513.351 303H507.615L504.281 308.188L503.774 308.977L503.83 309.63C503.974 311.24 504.354 315.499 504.54 317.58C504.673 319.281 504.633 321.013 504.421 322.686C504.421 322.686 504.352 323.515 504.244 324.829C504.217 325.155 504.187 325.501 504.153 325.876C503.729 330.695 502.935 339.497 502.596 341.6C502.502 342.177 502.419 343.625 502.356 345.585C502.342 345.976 502.33 346.384 502.317 346.811C502.069 355.166 502 370.173 502 370.173Z" fill="#514E7F"/>
<path id="Vector_47" opacity="0.1" d="M506 336V336.062C506 336.062 506.622 337.912 508.765 337.997C509.026 338.021 509.284 337.916 509.505 337.695C509.726 337.475 509.899 337.15 510 336.765C509.039 337.143 507.479 337.386 506 336Z" fill="black"/>
<path id="Vector_48" d="M461.864 252.971C463.417 256.607 465.079 249.847 466.083 244.509C466.647 241.504 467 238.945 467 238.945L462.867 235C462.867 235 462.614 235.91 462.295 237.351C461.438 241.201 460.105 248.839 461.864 252.971Z" fill="#A1616A"/>
<path id="Vector_49" d="M495.791 201.461C495.865 204.766 495.74 208.077 495.419 211.324C495.419 211.324 504.788 213.328 503.947 210.436C503.453 208.74 503.133 204.262 502.955 200.84C502.825 198.416 502.768 196.522 502.768 196.522C502.768 196.522 493.791 189.4 495.138 195.411C495.54 197.204 495.727 199.327 495.791 201.461Z" fill="#A1616A"/>
<path id="Vector_50" d="M494.911 248.126L496 277L491 275.171L491.874 251.358L491.583 245L494.911 248.126Z" fill="#464353"/>
<path id="Vector_51" opacity="0.1" d="M491 275.171L493.171 275.966L496 277L495.801 271.731L494.909 248.126L493.775 247.059L492.971 246.306L491.582 245L491.874 251.358L491 275.171Z" fill="black"/>
<path id="Vector_52" d="M514.686 369.58C515.547 372.366 514.217 374.951 514.217 374.951C513.921 376.565 513.919 377.552 514.051 378.135C514.325 379.374 515.178 378.918 515.178 378.918C517.862 378.441 519.488 366.743 518.798 365.403C518.108 364.063 519.218 360.984 519.218 360.984L520.67 361.898L522 355.295L521.161 353.623L520.075 351.465L519.34 350L512 362.375C512 362.375 512.313 363.136 512.745 364.228C513.348 365.76 514.181 367.957 514.686 369.58Z" fill="#3F3D56"/>
<path id="Vector_53" opacity="0.1" d="M502 346.835L509.797 363C511.164 357.84 511.752 347.487 512 338.748C510.548 336.411 509.146 334.399 508.085 333.429C508.085 333.429 504.495 328.408 503.738 326C503.336 330.797 502.584 339.556 502.264 341.649C502.158 342.337 502.071 344.268 502 346.835Z" fill="black"/>
<path id="Vector_54" opacity="0.1" d="M504 308L514 305.445L513.456 303H507.476L504 308Z" fill="black"/>
<path id="Vector_55" opacity="0.1" d="M502 346L509.967 362C511.193 356.78 511.735 347.364 511.966 339.353C511.978 338.948 511.99 338.546 512 338.15C510.535 335.862 509.116 333.895 508.052 332.945C508.052 332.945 504.704 328.41 503.793 326C503.767 326.314 503.739 326.647 503.707 327.009C503.306 331.654 502.554 340.136 502.233 342.163C502.144 342.716 502.07 344.112 502 346Z" fill="black"/>
<path id="Vector_56" opacity="0.1" d="M512 362.177C512 362.177 512.272 362.925 512.646 364C514.004 360.852 517.224 353.603 519 351.441L518.363 350L512 362.177Z" fill="black"/>
<path id="Vector_57" d="M492.192 316.703C492.645 320.05 492.645 324.041 492.645 324.041C492.645 324.041 492.703 331.269 496.449 334.075L496.897 334.399L512.393 366C512.393 366 518.127 351.758 520 350.894C520 350.894 512.451 336.111 508.875 332.874C508.875 332.874 504.56 326.941 504.334 324.892C504.107 322.843 502.857 321.762 502.857 321.762C502.857 321.762 503.823 314.858 503.426 313.129C503.208 312.073 503.166 310.915 503.305 309.812C503.411 309.164 503.615 308.779 503.933 309.119C503.995 309.185 504.052 309.264 504.104 309.355L513.922 306.549V296.958C513.922 296.958 516.306 291.672 515.966 285.199C515.625 278.725 516.364 278.942 516.364 278.942C516.364 278.942 516.329 268.008 515.843 267.095C515.358 266.182 510.696 262 510.696 262L496.078 266.936L495.475 272.251C495.475 272.251 494.964 276.478 494.113 278.356C493.262 280.233 494.113 282.496 494.113 282.496C494.113 282.496 493.829 287.351 492.977 291.672C492.126 295.993 491.737 313.359 492.192 316.703Z" fill="#514E7F"/>
<path id="Vector_58" opacity="0.1" d="M495.138 195.413C495.543 197.208 495.731 199.348 495.795 201.47C496.809 203.204 498.12 204.106 499.46 203.99C500.8 203.874 502.067 202.75 503 200.848C502.87 198.422 502.812 196.526 502.812 196.526C502.812 196.526 493.784 189.396 495.138 195.413Z" fill="black"/>
<path id="Vector_59" d="M494 194.006C494.001 196.556 494.489 199.009 495.363 200.863C496.238 202.718 497.435 203.834 498.707 203.983C499.98 204.132 501.233 203.303 502.211 201.666C503.188 200.029 503.816 197.707 503.965 195.175C504.115 192.643 503.776 190.092 503.016 188.044C502.257 185.996 501.135 184.605 499.88 184.156C498.625 183.707 497.332 184.234 496.265 185.629C495.197 187.024 494.437 189.182 494.139 191.661C494.046 192.429 494 193.216 494 194.006V194.006Z" fill="#A1616A"/>
<path id="Vector_60" opacity="0.1" d="M498.233 211.752C498.233 211.752 501.872 208.434 502.099 208.004C502.326 207.573 509.876 245.69 509.876 245.69L512 264.639C512 264.639 500.675 274.166 498.225 272.881C495.774 271.596 495.557 272.881 495.557 272.881C495.557 272.881 493.051 245.26 492.234 242.8C491.418 240.339 492.997 215.285 492.997 215.285L495.828 208L498.233 211.752Z" fill="black"/>
<path id="Vector_61" opacity="0.1" d="M498.233 210.752C498.233 210.752 501.872 207.434 502.099 207.004C502.326 206.573 509.876 244.69 509.876 244.69L512 263.639C512 263.639 500.675 273.166 498.225 271.881C495.774 270.596 495.557 271.881 495.557 271.881C495.557 271.881 493.051 244.26 492.234 241.8C491.418 239.339 492.997 214.285 492.997 214.285L495.828 207L498.233 210.752Z" fill="black"/>
<path id="Vector_62" d="M492.236 242.332C492.399 242.85 492.646 244.461 492.922 246.692C493.115 248.244 493.324 250.093 493.538 252.083C494.502 261.061 495.557 272.879 495.557 272.879C495.557 272.879 495.624 272.481 496.096 272.344C496.479 272.233 497.129 272.295 498.22 272.879C500.671 274.183 512 264.508 512 264.508L511.673 261.573L509.876 245.267C509.876 245.267 502.305 206.567 502.088 207.004C501.955 207.268 500.54 208.634 499.462 209.648C498.774 210.301 498.22 210.806 498.22 210.806L495.933 207.199L495.807 207L492.989 214.393C492.989 214.393 491.419 239.83 492.236 242.332Z" fill="#A2A4AD"/>
<path id="Vector_63" opacity="0.1" d="M500.402 214.542C500.081 217.023 500.829 221.102 500.829 221.102C500.829 221.102 503.398 233.797 504.147 239.663C504.897 245.53 509.186 257.354 509.186 257.354C509.186 257.354 509.815 258.622 510.697 260.387C510.794 260.584 510.897 260.787 511 261L509.234 244.865C509.234 244.865 501.794 206.571 501.58 207.004C501.45 207.265 500.06 208.617 499 209.621C499.663 210.834 500.615 212.899 500.402 214.542Z" fill="black"/>
<path id="Vector_64" d="M501.237 214.462C500.88 216.972 501.712 221.097 501.712 221.097C501.712 221.097 504.568 233.937 505.402 239.871C506.236 245.804 511.004 257.763 511.004 257.763C511.004 257.763 511.704 259.045 512.684 260.831C512.801 261.043 512.922 261.262 513.042 261.483C514.955 264.966 517.646 269.849 518.487 271.275C518.61 271.487 518.694 271.624 518.73 271.67C518.806 271.763 518.89 271.831 518.98 271.869C519.529 272.143 520.613 271.944 522.122 271.67C523.907 271.343 522.418 264.6 522.418 264.6L521.948 263.716L521.52 262.906L516.657 253.758L516.3 253.069L514.813 250.266L514.056 235.709L514.038 235.36C514.038 235.36 514.259 234.437 514.6 233.027C515.509 229.211 517.294 221.848 517.948 219.469C518.023 219.191 518.081 218.986 518.126 218.859C518.126 218.842 518.135 218.826 518.14 218.813C518.617 217.4 517.308 217.507 517.308 217.507C517.308 217.507 515.998 216.855 516.237 215.875C516.476 214.896 514.689 214.244 514.748 212.83C514.807 211.417 513.677 211.198 513.677 211.198C513.677 211.198 512.07 212.178 512.249 211.198C512.427 210.219 509.749 209.674 509.749 209.674C509.749 209.674 508.441 210.872 507.727 209.674C507.013 208.476 504.083 208.48 504.083 208.48C504.083 208.48 504.681 204.345 504.083 203.147C503.485 201.949 499 208.48 499 208.48C499 208.48 501.594 211.956 501.237 214.462Z" fill="#464353"/>
<path id="Vector_65" opacity="0.1" d="M516 270.016C516 270.016 510.658 282.153 506.926 278.213C503.194 274.273 511.946 264 511.946 264L516 270.016Z" fill="black"/>
<path id="Vector_66" d="M516 269.016C516 269.016 510.658 281.153 506.926 277.213C503.194 273.273 511.946 263 511.946 263L516 269.016Z" fill="#A1616A"/>
<path id="Vector_67" opacity="0.1" d="M493.328 275C492.999 269.136 492.043 260.325 492.822 257.652C493.208 256.327 493.494 253.801 493.703 251.036C493.815 249.548 493.904 247.99 493.976 246.512C494.167 242.591 494.228 239.234 494.228 239.234C494.228 239.234 496.102 222.185 495.738 218.681C495.51 216.489 495.772 210.998 496 207.194L495.88 207L493.186 214.221C493.186 214.221 491.678 239.068 492.458 241.511C492.615 242.018 492.85 243.591 493.114 245.77L491.625 244.496L491.937 250.762L491 274.229L493.328 275Z" fill="black"/>
<path id="Vector_68" d="M495 203C495 203 492.19 207.637 491.121 207.743C491.121 207.743 491.41 210.31 492.604 211.382C492.604 211.382 489.671 212.146 488.584 211.816C487.497 211.485 485.597 212.024 485.217 213.099C484.837 214.174 484.013 215.554 483.361 215.766C482.709 215.978 482 217.265 482 217.265L486.783 231.17C486.783 231.17 488.522 239.729 488.142 241.654C487.763 243.58 488.198 254.385 488.496 254.918C488.794 255.45 487.979 276.955 486.513 276.955C486.513 276.955 490.531 282.304 491.728 280.7C492.924 279.095 490.205 261.766 491.402 257.806C492.598 253.846 492.868 239.25 492.868 239.25C492.868 239.25 494.824 222.078 494.443 218.548C494.061 215.018 495 203 495 203Z" fill="#464353"/>
<path id="Vector_69" opacity="0.1" d="M461 237.228C462.716 236.332 465.345 236.306 465.831 244C466.549 241.156 467 238.734 467 238.734L461.73 235C461.73 235 461.406 235.864 461 237.228Z" fill="black"/>
<path id="Vector_70" d="M485.914 217L483.072 217.634C483.072 217.634 482.202 219.748 481.394 219.748C480.586 219.748 479.946 221.65 479.946 221.65C479.946 221.65 478.787 222.81 478.034 222.493C477.282 222.176 474.153 221.653 473.689 222.55C473.225 223.447 470.212 224.29 470.212 224.29C470.212 224.29 469.053 227.564 468.01 227.564C466.967 227.564 461.174 235.278 461 238.023C461 238.023 466.736 231.367 466.793 246C466.793 246 469.227 242.038 469.634 240.349C470.04 238.66 473.805 239.347 473.805 239.347C473.805 239.347 476.353 237.284 476.76 235.912C477.167 234.539 479.541 238.099 480.294 237.056C481.047 236.013 487.885 230.587 487.885 230.587L490 223.339L485.914 217Z" fill="#464353"/>
<path id="Vector_71" d="M498.5 259C498.224 259 498 258.776 498 258.5C498 258.224 498.224 258 498.5 258C498.776 258 499 258.224 499 258.5C499 258.776 498.776 259 498.5 259Z" fill="#3F3D56"/>
<path id="Vector_72" opacity="0.1" d="M515 379.08C515.241 380.397 515.991 379.913 515.991 379.913C518.352 379.405 519.782 366.968 519.175 365.543C518.568 364.117 519.553 360.827 519.553 360.827L520.83 361.798L522 354.777L521.262 353C520.527 355.488 519.475 359.066 519.227 359.98C518.756 361.876 518.533 363.969 518.577 366.074C518.617 368.274 517.31 378.796 515 379.08Z" fill="black"/>
<path id="Vector_73" opacity="0.1" d="M494.005 191.411C494.116 191.339 494.227 191.255 494.332 191.17C494.707 190.879 495.101 190.544 495.328 189.918C495.536 189.336 495.603 188.516 495.927 188.184C496.3 187.802 496.745 188.319 497.149 188.497C497.63 188.713 498.13 188.456 498.598 188.128C499.295 187.636 500.268 186.732 500.983 187.667C501.539 188.394 501.323 189.934 501.465 191.032C501.686 192.738 502.633 193.849 502.812 195.574C502.892 196.335 502.84 197.264 503.162 197.737C503.256 197.865 503.363 197.955 503.476 198C503.792 196.776 503.969 195.439 503.996 194.075C504.024 192.711 503.9 191.351 503.634 190.085C503.368 188.818 502.966 187.674 502.453 186.725C501.94 185.777 501.328 185.046 500.657 184.581C499.987 184.116 499.272 183.927 498.561 184.026C497.85 184.125 497.157 184.51 496.529 185.156C495.901 185.802 495.351 186.694 494.915 187.775C494.479 188.856 494.167 190.1 494 191.427L494.005 191.411Z" fill="black"/>
<path id="Vector_74" d="M498.572 187.492C498.079 187.837 497.543 188.106 497.03 187.876C496.593 187.683 496.129 187.141 495.732 187.548C495.384 187.899 495.314 188.756 495.095 189.366C494.853 190.023 494.434 190.391 494.034 190.679C493.735 190.942 493.416 191.11 493.089 191.178C492.925 191.209 492.76 191.167 492.606 191.057C492.452 190.947 492.314 190.772 492.202 190.545C491.892 189.839 491.986 188.782 492.17 187.939C492.355 187.095 492.616 186.255 492.597 185.342C492.574 184.259 492.158 183.317 492.123 182.237C492.078 180.868 492.665 179.673 493.329 179.118C493.924 178.623 494.605 178.485 495.149 177.805C495.77 177.037 496.111 175.705 496.571 174.602C497.239 172.997 498.285 171.799 499.355 172.028C500.014 172.169 500.613 172.819 501.269 173.072C502.266 173.463 503.32 172.895 504.312 173.331C504.551 173.403 504.77 173.629 504.931 173.972C505.175 174.589 505.049 175.452 504.942 176.194C504.748 177.53 504.667 179.043 505.051 180.218C505.486 181.548 506.41 182.109 506.812 183.474C506.928 183.875 506.992 184.322 506.999 184.778C507.006 185.235 506.956 185.688 506.852 186.1C506.661 186.855 506.29 187.469 506.233 188.3C506.193 188.897 506.323 189.478 506.391 190.062C506.459 190.647 506.44 191.375 506.184 191.704C505.928 192.032 505.57 191.95 505.373 192.36C505.314 192.523 505.274 192.709 505.258 192.905C505.242 193.1 505.25 193.3 505.281 193.489C505.35 194.146 505.498 194.74 505.577 195.383C505.627 195.699 505.641 196.031 505.618 196.357C505.595 196.684 505.535 196.998 505.443 197.277C505.105 198.137 504.423 198.085 503.877 197.855C503.719 197.808 503.569 197.696 503.436 197.527C503.088 197.031 503.149 196.056 503.064 195.259C502.874 193.453 501.867 192.281 501.632 190.496C501.481 189.343 501.71 187.725 501.119 186.964C500.35 186.028 499.313 186.977 498.572 187.492Z" fill="#464353"/>
<path id="Vector_75" opacity="0.1" d="M499 304C499 304 494.154 310.505 494 313L499 304Z" fill="black"/>
<path id="Vector_76" opacity="0.1" d="M500 310C500 310 493.662 315.2 494.014 317L500 310Z" fill="black"/>
<path id="Vector_77" opacity="0.1" d="M500 315C500 315 496.246 318.138 496 320L500 315Z" fill="black"/>
<path id="Vector_78" opacity="0.1" d="M499 322C499 322 496.541 327.094 496.048 325.785C495.556 324.475 499 322 499 322Z" fill="black"/>
<path id="Vector_79" opacity="0.1" d="M502 325C502 325 500.461 330.648 501.202 330.987C501.942 331.326 502 325 502 325Z" fill="black"/>
<path id="Vector_80" opacity="0.1" d="M510 228C510 228 511.324 231.91 510.925 232.89C510.525 233.869 510 228 510 228Z" fill="black"/>
<path id="Vector_81" opacity="0.1" d="M510 217C510 217 511.516 226.647 510.815 225.966C510.113 225.284 510 217 510 217Z" fill="black"/>
<path id="Vector_82" opacity="0.1" d="M477 227C477 227 479.38 230.882 478.947 233L477 227Z" fill="black"/>
<path id="Vector_83" opacity="0.1" d="M473 228C473 228 475.304 233.386 474.966 234L473 228Z" fill="black"/>
<path id="Vector_84" opacity="0.1" d="M470.66 234C470.66 234 471.761 237.856 470 238L470.66 234Z" fill="black"/>
<path id="Vector_85" opacity="0.05" d="M500.868 300.926C501.557 302.687 501.557 305.81 501.869 307.092C502.039 307.796 502.418 309.013 502.726 310C502.827 309.359 503.022 308.978 503.325 309.315C503.524 306.377 503.876 301.307 503.99 300.285C504.152 298.844 502.368 295 502.368 295C502.368 295 500.625 295.721 500.179 297.482C499.733 299.244 500.179 299.167 500.868 300.926Z" fill="black"/>
<path id="Vector_86" opacity="0.1" d="M510 263.792C512.057 264.345 515.885 275 515.885 275C515.885 275 516.388 273.582 517.086 271.6C517.963 269.086 519.143 265.66 520 263.063L514.977 253L514.063 254.911C514.063 254.911 512.29 258.351 512.29 259.017C512.29 259.277 511.948 260.066 511.512 260.928C510.845 262.27 510 263.792 510 263.792Z" fill="black"/>
<path id="Vector_87" opacity="0.1" d="M516.848 219.604C516.912 219.329 516.962 219.126 517 219L515.039 219.278L514 233C514.775 229.237 516.293 221.956 516.848 219.604Z" fill="black"/>
<path id="Vector_88" opacity="0.1" d="M512 261.257C514.149 264.524 517.169 269.105 518.113 270.443C518.252 270.642 518.346 270.77 518.386 270.813C518.471 270.901 518.566 270.964 518.667 271C519.611 268.881 520.958 265.828 522 263.345L521.519 262.586L516.055 254L515.379 255.111C515.379 255.111 513.307 258.274 513.307 258.887C513.307 259.181 512.659 260.246 512 261.257Z" fill="black"/>
<path id="Vector_89" d="M514.057 219.327L516.784 219C516.784 219 517.512 222.055 518.117 222.275C518.723 222.494 519.512 225.003 519.512 225.003C519.512 225.003 521.847 225.769 521.745 227.079C521.643 228.389 525.335 237.758 525.335 237.758C525.335 237.758 526.547 242.251 525.698 245.526C524.849 248.801 524.244 250.986 524.062 252.184C523.88 253.383 521.727 258.626 521.745 259.608C521.763 260.591 516.243 275 516.243 275C516.243 275 512.182 264.52 510 263.974C510 263.974 512.424 259.936 512.424 259.281C512.424 258.626 514.29 255.243 514.29 255.243L516.654 250.658C516.654 250.658 517.443 250.003 516.654 248.801C515.864 247.599 517.986 244.871 517.986 244.871C517.986 244.871 518.048 242.906 517.259 242.36C516.47 241.813 515.441 238.214 515.441 238.214L512.591 235.594L514.057 219.327Z" fill="#464353"/>
<path id="Vector_90" opacity="0.1" d="M524 239.908C524 239.908 522.036 238.33 522 239.335C521.964 240.339 524 239.908 524 239.908Z" fill="black"/>
<path id="Vector_91" opacity="0.1" d="M523 246C523 246 518.822 246.999 519.006 248.629C519.189 250.258 523 246 523 246Z" fill="black"/>
<path id="Vector_92" opacity="0.1" d="M520 228C520 228 517.36 234.089 517 232.828L520 228Z" fill="black"/>
<g id="Group" opacity="0.1">
<path id="Vector_93" opacity="0.1" d="M504.783 177.963C504.768 177.179 504.819 176.395 504.936 175.642C504.985 175.324 505.022 174.999 505.048 174.671C505.069 175.22 505.031 175.771 504.936 176.29C504.855 176.836 504.804 177.397 504.783 177.963V177.963Z" fill="black"/>
<path id="Vector_94" opacity="0.1" d="M492.885 185.084C492.819 184.113 492.469 183.229 492.437 182.236C492.432 182.07 492.435 181.904 492.447 181.74C492.513 182.744 492.878 183.634 492.899 184.653C492.901 184.797 492.896 184.942 492.885 185.084V185.084Z" fill="black"/>
<path id="Vector_95" opacity="0.1" d="M492.513 189.777C492.623 190.001 492.758 190.174 492.908 190.283C493.058 190.391 493.219 190.432 493.379 190.402C493.698 190.335 494.009 190.169 494.3 189.91C494.69 189.609 495.099 189.263 495.335 188.615C495.55 188.013 495.62 187.168 495.956 186.822C496.342 186.427 496.804 186.961 497.223 187.146C497.722 187.372 498.241 187.107 498.724 186.767C499.447 186.259 500.458 185.323 501.2 186.288C501.777 187.039 501.553 188.635 501.7 189.771C501.929 191.532 502.912 192.684 503.097 194.467C503.18 195.254 503.125 196.215 503.46 196.704C503.589 196.871 503.736 196.982 503.89 197.028C504.43 197.254 505.095 197.306 505.417 196.458C505.511 196.216 505.569 195.931 505.587 195.633C505.631 196.147 505.57 196.674 505.417 197.105C505.088 197.953 504.423 197.902 503.89 197.675C503.736 197.629 503.589 197.518 503.46 197.351C503.12 196.863 503.18 195.901 503.097 195.115C502.912 193.335 501.929 192.179 501.7 190.418C501.553 189.282 501.777 187.686 501.2 186.935C500.458 185.964 499.447 186.906 498.724 187.414C498.244 187.754 497.722 188.02 497.223 187.793C496.795 187.602 496.342 187.068 495.956 187.469C495.616 187.816 495.55 188.661 495.335 189.263C495.099 189.91 494.69 190.273 494.3 190.557C494.009 190.816 493.698 190.982 493.379 191.049C493.219 191.079 493.058 191.038 492.908 190.93C492.758 190.822 492.623 190.649 492.513 190.425C492.431 190.214 492.372 189.974 492.341 189.718C492.309 189.463 492.306 189.197 492.33 188.939C492.348 189.246 492.412 189.537 492.513 189.777V189.777Z" fill="black"/>
<path id="Vector_96" opacity="0.1" d="M506.194 187.567C506.25 186.748 506.612 186.143 506.798 185.398C506.869 185.118 506.913 184.817 506.931 184.508C506.963 185.034 506.917 185.567 506.798 186.045C506.617 186.767 506.274 187.363 506.203 188.143C506.186 187.953 506.183 187.759 506.194 187.567Z" fill="black"/>
<path id="Vector_97" opacity="0.1" d="M505.251 192.623C505.227 192.449 505.223 192.266 505.24 192.089C505.256 191.912 505.293 191.744 505.348 191.597C505.54 191.179 505.904 191.273 506.139 190.949C506.201 190.856 506.252 190.739 506.29 190.607C506.329 190.475 506.353 190.329 506.361 190.179C506.398 190.706 506.361 191.289 506.139 191.597C505.916 191.904 505.54 191.839 505.348 192.244C505.3 192.353 505.267 192.483 505.251 192.623V192.623Z" fill="black"/>
</g>
<path id="Vector_98" d="M545.146 360.018C545.146 360.018 552.831 359.209 551.926 368.589C551.926 368.589 552.112 370.246 551.242 371C551.242 371 551.229 370.304 550.454 370.54C550.179 370.621 549.899 370.643 549.62 370.608C549.243 370.564 548.884 370.307 548.598 369.877V369.877C548.598 369.877 546.437 368.321 545.597 362.173C545.597 362.173 544.977 360.83 545.001 360.487L546.301 361.457C546.301 361.457 545.857 363.075 546.207 364.441C546.207 364.441 546.249 361.529 546.498 361.584C546.549 361.6 547.173 362.15 547.173 362.15C547.173 362.15 546.409 364.988 546.987 367.052C546.987 367.052 546.768 363.554 547.413 362.354L548.325 363.282C548.325 363.282 547.433 366.214 548.039 368.609C548.039 368.609 547.883 364.939 548.516 363.509L549.345 364.632C549.345 364.632 548.507 367.521 549.018 369.508C549.018 369.508 549.085 365.234 549.523 364.913C549.523 364.913 550.248 366.023 550.358 366.479C550.358 366.479 549.785 368.58 550.14 369.686C550.14 369.686 550.358 366.839 550.538 366.826C550.538 366.826 551.259 368.712 551.333 370.003C551.333 370.003 551.302 368.081 550.713 366.645C551.128 366.783 551.512 367.129 551.816 367.641C551.816 367.641 551.705 366.308 550.534 366.192C550.534 366.192 549.938 364.761 549.778 364.674C549.778 364.674 550.943 364.506 551.647 365.049C551.647 365.049 551.027 363.794 549.566 364.363L548.749 363.202C548.749 363.202 550.28 362.839 550.93 363.24C550.93 363.24 550.187 362.127 548.527 362.939L547.639 362.014C547.639 362.014 548.94 361.522 549.724 361.69C549.724 361.69 548.903 360.92 547.379 361.755L546.742 361.257C546.742 361.257 547.699 360.933 547.979 360.878C548.26 360.823 548.275 360.691 548.275 360.691C547.669 360.516 547.047 360.637 546.478 361.04C546.478 361.04 545.121 360.163 545.146 360.018Z" fill="#A2A4AD"/>
<path id="Vector_99" opacity="0.1" d="M550.5 374C547.462 374 545 373.105 545 372C545 370.895 547.462 370 550.5 370C553.538 370 556 370.895 556 372C556 373.105 553.538 374 550.5 374Z" fill="#A2A4AD"/>
<path id="search" d="M128.396 863.979C128.396 860.317 127.005 857.485 124.222 855.483C121.487 853.433 116.678 851.675 109.793 850.21C102.957 848.745 97.5127 846.987 93.46 844.937C89.4561 842.886 86.4775 840.444 84.5244 837.612C82.6201 834.78 81.668 831.411 81.668 827.505C81.668 821.011 84.4023 815.518 89.8711 811.025C95.3887 806.533 102.42 804.287 110.965 804.287C119.949 804.287 127.225 806.606 132.791 811.245C138.406 815.884 141.214 821.816 141.214 829.043H127.591C127.591 825.332 126.004 822.134 122.83 819.448C119.705 816.763 115.75 815.42 110.965 815.42C106.033 815.42 102.176 816.494 99.3926 818.643C96.6094 820.791 95.2178 823.599 95.2178 827.065C95.2178 830.337 96.5117 832.803 99.0996 834.463C101.688 836.123 106.351 837.71 113.089 839.224C119.876 840.737 125.369 842.544 129.568 844.644C133.768 846.743 136.868 849.282 138.87 852.261C140.921 855.19 141.946 858.779 141.946 863.027C141.946 870.107 139.114 875.796 133.45 880.093C127.786 884.341 120.438 886.465 111.404 886.465C105.057 886.465 99.4414 885.342 94.5586 883.096C89.6758 880.85 85.8428 877.725 83.0596 873.721C80.3252 869.668 78.958 865.298 78.958 860.61H92.5078C92.752 865.151 94.5586 868.765 97.9277 871.45C101.346 874.087 105.838 875.405 111.404 875.405C116.531 875.405 120.633 874.38 123.709 872.329C126.834 870.229 128.396 867.446 128.396 863.979ZM192.483 886.465C181.741 886.465 173.001 882.949 166.263 875.918C159.524 868.838 156.155 859.39 156.155 847.573V845.083C156.155 837.222 157.645 830.215 160.623 824.062C163.65 817.861 167.85 813.027 173.221 809.561C178.641 806.045 184.5 804.287 190.799 804.287C201.102 804.287 209.109 807.681 214.822 814.468C220.535 821.255 223.392 830.972 223.392 843.618V849.258H169.705C169.9 857.07 172.171 863.394 176.517 868.228C180.911 873.013 186.478 875.405 193.216 875.405C198.001 875.405 202.054 874.429 205.374 872.476C208.694 870.522 211.6 867.935 214.09 864.712L222.366 871.157C215.726 881.362 205.765 886.465 192.483 886.465ZM190.799 815.42C185.33 815.42 180.74 817.422 177.029 821.426C173.318 825.381 171.023 830.947 170.145 838.125H209.842V837.1C209.451 830.215 207.596 824.893 204.275 821.133C200.955 817.324 196.463 815.42 190.799 815.42ZM288.064 885C287.283 883.438 286.648 880.654 286.16 876.65C279.861 883.193 272.342 886.465 263.602 886.465C255.789 886.465 249.368 884.268 244.339 879.873C239.358 875.43 236.868 869.814 236.868 863.027C236.868 854.775 239.993 848.379 246.243 843.838C252.542 839.248 261.38 836.953 272.757 836.953H285.94V830.728C285.94 825.991 284.524 822.231 281.692 819.448C278.86 816.616 274.686 815.2 269.168 815.2C264.334 815.2 260.281 816.421 257.01 818.862C253.738 821.304 252.103 824.258 252.103 827.725H238.479C238.479 823.77 239.871 819.961 242.654 816.299C245.486 812.588 249.295 809.658 254.08 807.51C258.914 805.361 264.212 804.287 269.974 804.287C279.104 804.287 286.258 806.582 291.434 811.172C296.609 815.713 299.295 821.987 299.49 829.995V866.47C299.49 873.745 300.418 879.531 302.273 883.828V885H288.064ZM265.579 874.673C269.827 874.673 273.855 873.574 277.664 871.377C281.473 869.18 284.231 866.323 285.94 862.808V846.548H275.32C258.719 846.548 250.418 851.406 250.418 861.123C250.418 865.371 251.834 868.691 254.666 871.084C257.498 873.477 261.136 874.673 265.579 874.673ZM359.036 817.91C356.985 817.568 354.764 817.397 352.371 817.397C343.484 817.397 337.454 821.182 334.28 828.75V885H320.73V805.752H333.914L334.134 814.907C338.577 807.827 344.876 804.287 353.03 804.287C355.667 804.287 357.669 804.629 359.036 805.312V817.91ZM401.883 875.405C406.717 875.405 410.94 873.94 414.554 871.011C418.167 868.081 420.169 864.419 420.56 860.024H433.377C433.133 864.565 431.57 868.887 428.689 872.988C425.809 877.09 421.951 880.361 417.117 882.803C412.332 885.244 407.254 886.465 401.883 886.465C391.092 886.465 382.498 882.876 376.102 875.698C369.754 868.472 366.58 858.608 366.58 846.108V843.838C366.58 836.123 367.996 829.263 370.828 823.257C373.66 817.251 377.713 812.588 382.986 809.268C388.309 805.947 394.583 804.287 401.81 804.287C410.696 804.287 418.069 806.948 423.929 812.271C429.837 817.593 432.986 824.502 433.377 832.998H420.56C420.169 827.871 418.216 823.672 414.7 820.4C411.233 817.08 406.937 815.42 401.81 815.42C394.925 815.42 389.578 817.91 385.77 822.891C382.01 827.822 380.13 834.976 380.13 844.351V846.914C380.13 856.045 382.01 863.076 385.77 868.008C389.529 872.939 394.9 875.405 401.883 875.405ZM462.161 815.347C468.167 807.974 475.979 804.287 485.599 804.287C502.347 804.287 510.794 813.735 510.94 832.632V885H497.391V832.559C497.342 826.846 496.023 822.622 493.436 819.888C490.896 817.153 486.917 815.786 481.497 815.786C477.103 815.786 473.245 816.958 469.925 819.302C466.604 821.646 464.017 824.722 462.161 828.53V885H448.611V772.5H462.161V815.347Z" fill="url(#paint1_linear)"/>
<path id="Vector_100" d="M471.5 209C465.701 209 461 202.956 461 195.5C461 188.044 465.701 182 471.5 182C477.299 182 482 188.044 482 195.5C482 202.956 477.299 209 471.5 209Z" fill="#464353"/>
<path id="Vector_101" d="M471 206C466.582 206 463 201.523 463 196C463 190.477 466.582 186 471 186C475.418 186 479 190.477 479 196C479 201.523 475.418 206 471 206Z" fill="#A2A4AD"/>
<path id="Ellipse 1" d="M472.85 190.5C472.85 190.856 472.658 191.191 472.324 191.441C471.991 191.691 471.523 191.85 471 191.85C470.477 191.85 470.009 191.691 469.676 191.441C469.342 191.191 469.15 190.856 469.15 190.5C469.15 190.144 469.342 189.809 469.676 189.559C470.009 189.309 470.477 189.15 471 189.15C471.523 189.15 471.991 189.309 472.324 189.559C472.658 189.809 472.85 190.144 472.85 190.5Z" fill="white" stroke="black" stroke-width="0.3"/>
<circle id="Ellipse 2" cx="471" cy="201" r="1.85" fill="white" stroke="black" stroke-width="0.3"/>
<path id="Ellipse 3" d="M476.85 196C476.85 196.523 476.691 196.991 476.441 197.324C476.191 197.658 475.856 197.85 475.5 197.85C475.144 197.85 474.809 197.658 474.559 197.324C474.309 196.991 474.15 196.523 474.15 196C474.15 195.477 474.309 195.009 474.559 194.676C474.809 194.342 475.144 194.15 475.5 194.15C475.856 194.15 476.191 194.342 476.441 194.676C476.691 195.009 476.85 195.477 476.85 196Z" fill="white" stroke="black" stroke-width="0.3"/>
<path id="Ellipse 4" d="M467.85 196C467.85 196.534 467.741 197.01 467.573 197.347C467.4 197.693 467.189 197.85 467 197.85C466.811 197.85 466.6 197.693 466.427 197.347C466.259 197.01 466.15 196.534 466.15 196C466.15 195.466 466.259 194.99 466.427 194.653C466.6 194.307 466.811 194.15 467 194.15C467.189 194.15 467.4 194.307 467.573 194.653C467.741 194.99 467.85 195.466 467.85 196Z" fill="white" stroke="black" stroke-width="0.3"/>
<path id="Vector_102" d="M451.5 207C446.806 207 443 202.075 443 196C443 189.925 446.806 185 451.5 185C456.194 185 460 189.925 460 196C460 202.075 456.194 207 451.5 207Z" fill="#464353"/>
<path id="Vector_103" d="M451 204C447.134 204 444 200.194 444 195.5C444 190.806 447.134 187 451 187C454.866 187 458 190.806 458 195.5C458 200.194 454.866 204 451 204Z" fill="#A2A4AD"/>
<path id="Ellipse 5" d="M450.355 192.158C450.63 192.847 450.401 193.651 449.893 193.973C449.386 194.296 448.736 194.051 448.461 193.362C448.185 192.674 448.414 191.869 448.922 191.547C449.429 191.224 450.079 191.47 450.355 192.158Z" fill="white" stroke="black" stroke-width="0.3"/>
<path id="Ellipse 6" d="M453.063 198.921C453.338 199.61 453.109 200.414 452.602 200.737C452.094 201.059 451.444 200.814 451.169 200.125C450.893 199.437 451.122 198.632 451.63 198.31C452.137 197.987 452.787 198.233 453.063 198.921Z" fill="white" stroke="black" stroke-width="0.3"/>
<path id="Ellipse 7" d="M454.481 193.494C454.756 194.183 454.527 194.987 454.02 195.31C453.512 195.632 452.863 195.387 452.587 194.698C452.311 194.01 452.541 193.206 453.048 192.883C453.555 192.561 454.205 192.806 454.481 193.494Z" fill="white" stroke="black" stroke-width="0.3"/>
<path id="Ellipse 8" d="M449.114 196.907C449.389 197.595 449.16 198.399 448.653 198.722C448.145 199.045 447.495 198.799 447.22 198.111C446.944 197.422 447.174 196.618 447.681 196.295C448.188 195.973 448.838 196.218 449.114 196.907Z" fill="white" stroke="black" stroke-width="0.3"/>
</g>
<defs>
<linearGradient id="paint0_linear" x1="493.476" y1="379.034" x2="493.476" y2="170.989" gradientUnits="userSpaceOnUse">
<stop stop-color="#808080" stop-opacity="0.25"/>
<stop offset="0.54" stop-color="#808080" stop-opacity="0.12"/>
<stop offset="1" stop-color="#808080" stop-opacity="0.1"/>
</linearGradient>
<linearGradient id="paint1_linear" x1="94.1601" y1="798.475" x2="539.235" y2="801.282" gradientUnits="userSpaceOnUse">
<stop stop-color="#DAD5D5" stop-opacity="0.4"/>
<stop offset="1" stop-color="#DAD5D5" stop-opacity="0.1"/>
</linearGradient>
</defs>
</svg>
